<svg xmlns="http://www.w3.org/2000/svg" xmlns:xlink="http://www.w3.org/1999/xlink" width="80" zoomAndPan="magnify" viewBox="0 0 60 60" height="80" preserveAspectRatio="xMidYMid meet" version="1.0"><defs><clipPath id="c4ca0dabdb"><path d="M 8.730469 11 L 51.480469 11 L 51.480469 60 L 8.730469 60 Z M 8.730469 11 " clip-rule="nonzero"/></clipPath></defs><g clip-path="url(#c4ca0dabdb)"><path fill="#264de4" d="M 51.464844 11.792969 L 47.574219 55.175781 L 30.078125 60 L 12.632812 55.179688 L 8.746094 11.792969 Z M 51.464844 11.792969 " fill-opacity="1" fill-rule="nonzero"/></g><path fill="#2965f1" d="M 44.242188 52.410156 L 47.566406 15.339844 L 30.105469 15.339844 L 30.105469 56.3125 Z M 44.242188 52.410156 " fill-opacity="1" fill-rule="nonzero"/><path fill="#ebebeb" d="M 17.660156 31.433594 L 18.136719 36.753906 L 30.105469 36.753906 L 30.105469 31.433594 Z M 30.105469 20.660156 L 16.695312 20.660156 L 17.179688 25.980469 L 30.105469 25.980469 Z M 30.105469 50.789062 L 30.105469 45.253906 L 30.082031 45.257812 L 24.125 43.65625 L 23.746094 39.414062 L 18.375 39.414062 L 19.125 47.769531 L 30.082031 50.796875 Z M 30.105469 50.789062 " fill-opacity="1" fill-rule="nonzero"/><path fill="#264de4" d="M 18.800781 0 L 25.277344 0 L 25.277344 2.695312 L 21.507812 2.695312 L 21.507812 5.390625 L 25.277344 5.390625 L 25.277344 8.085938 L 18.800781 8.085938 Z M 26.574219 0 L 33.050781 0 L 33.050781 2.34375 L 29.28125 2.34375 L 29.28125 2.8125 L 33.050781 2.8125 L 33.050781 8.203125 L 26.574219 8.203125 L 26.574219 5.742188 L 30.339844 5.742188 L 30.339844 5.273438 L 26.574219 5.273438 Z M 34.34375 0 L 40.824219 0 L 40.824219 2.34375 L 37.054688 2.34375 L 37.054688 2.8125 L 40.824219 2.8125 L 40.824219 8.203125 L 34.34375 8.203125 L 34.34375 5.742188 L 38.113281 5.742188 L 38.113281 5.273438 L 34.34375 5.273438 Z M 34.34375 0 " fill-opacity="1" fill-rule="nonzero"/><path fill="#ffffff" d="M 36.671875 36.753906 L 36.050781 43.65625 L 30.085938 45.257812 L 30.085938 50.792969 L 41.050781 47.769531 L 41.132812 46.871094 L 42.386719 32.859375 L 42.519531 31.433594 L 43.484375 20.660156 L 30.085938 20.660156 L 30.085938 25.980469 L 37.621094 25.980469 L 37.136719 31.433594 L 30.085938 31.433594 L 30.085938 36.753906 Z M 36.671875 36.753906 " fill-opacity="1" fill-rule="nonzero"/></svg>