<svg xmlns="http://www.w3.org/2000/svg" width="80" zoomAndPan="magnify" viewBox="0 0 60 60" height="80" preserveAspectRatio="xMidYMid meet" xmlns:v="https://vecta.io/nano"><defs><clipPath id="A"><path d="M8.73 11h42.75v49H8.73zm0 0" clip-rule="nonzero"/></clipPath></defs><g clip-path="url(#A)"><path fill="#264de4" d="M51.465 11.793l-3.891 43.383L30.078 60l-17.445-4.82-3.887-43.387zm0 0"/></g><path fill="#2965f1" d="M44.242 52.41l3.324-37.07H30.105v40.973zm0 0"/><path d="M17.66 31.434l.477 5.32h11.969v-5.32zM30.105 20.66h-13.41l.484 5.32h12.926zm0 30.129v-5.535l-.023.004-5.957-1.602-.379-4.242h-5.371l.75 8.355 10.957 3.027zm0 0" fill="#ebebeb"/><path d="M18.801 0h6.477v2.695h-3.77V5.39h3.77v2.695h-6.477zm7.773 0h6.477v2.344h-3.77v.469h3.77v5.391h-6.477V5.742h3.766v-.469h-3.766zm7.77 0h6.48v2.344h-3.77v.469h3.77v5.391h-6.48V5.742h3.77v-.469h-3.77zm0 0"/><path fill="#fff" d="M36.672 36.754l-.621 6.902-5.965 1.602v5.535l10.965-3.023.082-.898 1.254-14.012.133-1.426.965-10.773H30.086v5.32h7.535l-.484 5.453h-7.051v5.32zm0 0"/></svg>