<svg xmlns="http://www.w3.org/2000/svg" width="80" zoomAndPan="magnify" viewBox="0 0 60 60" height="80" preserveAspectRatio="xMidYMid meet" xmlns:v="https://vecta.io/nano"><path d="M23.707 23.688v9.367l1.203.008v-4.461h2.91v-1.18h-2.91v-2.559h3.781v-1.176zm7.156 1.906c.434 0 .793-.352.793-.793s-.348-.793-.793-.793c-.43 0-.789.352-.789.793s.348.793.789.793zm-.613 1.176v6.293h1.203V26.77zm5.676-.184c-1.602 0-2.715 1.352-2.715 2.965s1.113 2.961 2.715 2.961c.738 0 1.336-.277 1.777-.746v.84c.008 1.039-.82 1.902-1.867 1.914-.406 0-.785-.148-1.086-.359l-.609 1.047c1.438.93 3.352.516 4.27-.918.324-.508.496-1.086.496-1.684v-5.828h-1.203v.563c-.441-.469-1.039-.754-1.777-.754zm-1.508 2.965c0-1.004.762-1.785 1.645-1.785s1.641.789 1.641 1.785-.766 1.773-1.641 1.773c-.883 0-1.645-.781-1.645-1.773zm8.832-1.785a1.3 1.3 0 0 0-1.285 1.313v3.977h-1.207v-6.293h1.207v.578c.367-.488.938-.762 1.555-.754.844 0 1.5.414 1.867 1.059a2.31 2.31 0 0 1 1.914-1.059c1.371 0 2.227 1.105 2.227 2.477v3.992h-1.195v-3.977c0-.715-.57-1.305-1.289-1.312-.719.008-1.297.598-1.289 1.313v3.977h-1.215v-3.977c0-.715-.57-1.305-1.289-1.312zm12.699-.285c-.551-.582-1.324-.902-2.125-.895-1.793 0-3.062 1.52-3.062 3.32 0 1.816 1.27 3.324 3.063 3.324.801 0 1.566-.324 2.125-.895v.719h1.207v-6.293h-1.207zm-3.984 2.426c0-1.195.922-2.152 2-2.152 1.066.012 1.984.957 1.984 2.152s-.918 2.145-1.996 2.145c-1.059.012-1.988-.937-1.988-2.145zm0 0"/><path fill="#1abcfe" d="M8.137 29.492a3.1 3.1 0 0 1 3.098-3.098 3.1 3.1 0 0 1 3.102 3.098 3.1 3.1 0 0 1-3.102 3.102 3.1 3.1 0 0 1-3.098-3.102zm0 0"/><path fill="#0acf83" d="M1.941 35.688c0-1.711 1.391-3.102 3.102-3.102h3.102v3.102c0 1.711-1.391 3.102-3.102 3.102s-3.102-1.391-3.102-3.102zm0 0"/><path fill="#ff7262" d="M8.137 20.199v6.195h3.098c1.715 0 3.102-1.391 3.102-3.102a3.1 3.1 0 0 0-3.102-3.102H8.137zm0 0"/><path fill="#f24e1e" d="M1.941 23.301c0 1.711 1.391 3.102 3.102 3.102h3.102v-6.195H5.043c-1.711-.008-3.102 1.383-3.102 3.094zm0 0"/><path fill="#a259ff" d="M1.941 29.492c0 1.715 1.391 3.102 3.102 3.102h3.102v-6.191H5.043a3.09 3.09 0 0 0-3.102 3.09zm0 0"/></svg>