<svg xmlns="http://www.w3.org/2000/svg" xmlns:xlink="http://www.w3.org/1999/xlink" width="80" zoomAndPan="magnify" viewBox="0 0 60 60" height="80" preserveAspectRatio="xMidYMid meet" version="1.0"><defs><g/><clipPath id="eb8307391f"><path d="M 19 0 L 39.75 0 L 39.75 20 L 19 20 Z M 19 0 " clip-rule="nonzero"/></clipPath><clipPath id="c77405fcd5"><path d="M 19 20 L 39.75 20 L 39.75 40 L 19 40 Z M 19 20 " clip-rule="nonzero"/></clipPath></defs><path fill="#0acf83" d="M 9.9375 59.996094 C 15.421875 59.996094 19.875 55.515625 19.875 49.996094 L 19.875 40 L 9.9375 40 C 4.453125 40 0 44.480469 0 49.996094 C 0 55.515625 4.453125 59.996094 9.9375 59.996094 Z M 9.9375 59.996094 " fill-opacity="1" fill-rule="nonzero"/><path fill="#a259ff" d="M 0 30 C 0 24.480469 4.453125 20 9.9375 20 L 19.875 20 L 19.875 40 L 9.9375 40 C 4.453125 40 0 35.519531 0 30 Z M 0 30 " fill-opacity="1" fill-rule="nonzero"/><path fill="#f24e1e" d="M 0 10.003906 C 0 4.484375 4.453125 0.00390625 9.9375 0.00390625 L 19.875 0.00390625 L 19.875 20 L 9.9375 20 C 4.453125 20 0 15.519531 0 10.003906 Z M 0 10.003906 " fill-opacity="1" fill-rule="nonzero"/><g clip-path="url(#eb8307391f)"><path fill="#ff7262" d="M 19.875 0.00390625 L 29.8125 0.00390625 C 35.296875 0.00390625 39.75 4.484375 39.75 10.003906 C 39.75 15.519531 35.296875 20 29.8125 20 L 19.875 20 Z M 19.875 0.00390625 " fill-opacity="1" fill-rule="nonzero"/></g><g clip-path="url(#c77405fcd5)"><path fill="#1abcfe" d="M 39.75 30 C 39.75 35.519531 35.296875 40 29.8125 40 C 24.328125 40 19.875 35.519531 19.875 30 C 19.875 24.480469 24.328125 20 29.8125 20 C 35.296875 20 39.75 24.480469 39.75 30 Z M 39.75 30 " fill-opacity="1" fill-rule="nonzero"/></g><g fill="#0acf83" fill-opacity="1"><g transform="translate(22.674433, 51.853391)"><g><path d="M 2.515625 0 L 0.53125 0 L 0.53125 -4.75 L 5.984375 -4.75 L 5.984375 -3.578125 L 2.515625 -3.578125 L 2.515625 -2.828125 L 5.453125 -2.828125 L 5.453125 -1.921875 L 2.515625 -1.921875 Z M 2.515625 0 "/></g></g><g transform="translate(28.92692, 51.853391)"><g><path d="M 2.515625 0 L 0.53125 0 L 0.53125 -4.75 L 2.515625 -4.75 Z M 2.515625 0 "/></g></g><g transform="translate(31.978689, 51.853391)"><g><path d="M 3.59375 0.109375 C 2.414062 0.109375 1.550781 -0.132812 1 -0.625 C 0.507812 -1.050781 0.265625 -1.632812 0.265625 -2.375 C 0.265625 -3.113281 0.507812 -3.695312 1 -4.125 C 1.550781 -4.601562 2.414062 -4.84375 3.59375 -4.84375 C 4.257812 -4.84375 4.8125 -4.765625 5.25 -4.609375 C 5.695312 -4.460938 6.046875 -4.257812 6.296875 -4 C 6.554688 -3.75 6.734375 -3.453125 6.828125 -3.109375 L 4.6875 -3.109375 C 4.46875 -3.421875 4.101562 -3.578125 3.59375 -3.578125 C 3.113281 -3.578125 2.757812 -3.4375 2.53125 -3.15625 C 2.351562 -2.9375 2.265625 -2.675781 2.265625 -2.375 C 2.265625 -2.070312 2.351562 -1.8125 2.53125 -1.59375 C 2.757812 -1.3125 3.113281 -1.171875 3.59375 -1.171875 C 3.976562 -1.171875 4.269531 -1.203125 4.46875 -1.265625 C 4.664062 -1.335938 4.804688 -1.425781 4.890625 -1.53125 L 4.125 -1.53125 L 4.125 -2.375 L 6.828125 -2.375 L 6.828125 0 L 6 0 L 5.828125 -0.453125 C 5.296875 -0.078125 4.550781 0.109375 3.59375 0.109375 Z M 3.59375 0.109375 "/></g></g><g transform="translate(39.197679, 51.853391)"><g><path d="M 9.5625 0 L 7.5625 0 L 7.5625 -3.03125 L 5.78125 0 L 4.296875 0 L 2.515625 -3.03125 L 2.515625 0 L 0.53125 0 L 0.53125 -4.75 L 2.890625 -4.75 L 5.046875 -1.359375 L 7.1875 -4.75 L 9.5625 -4.75 Z M 9.5625 0 "/></g></g><g transform="translate(49.286392, 51.853391)"><g><path d="M 7.984375 0 L 5.953125 0 L 5.515625 -0.78125 L 2.515625 -0.78125 L 2.0625 0 L 0.046875 0 L 3.09375 -4.75 L 4.9375 -4.75 Z M 4.84375 -1.953125 L 4.015625 -3.390625 L 3.1875 -1.953125 Z M 4.84375 -1.953125 "/></g></g></g></svg>