<svg xmlns="http://www.w3.org/2000/svg" xmlns:xlink="http://www.w3.org/1999/xlink" width="80" zoomAndPan="magnify" viewBox="0 0 60 60" height="80" preserveAspectRatio="xMidYMid meet" version="1.0"><path fill="#f24e1e" d="M 12.703125 0 L 15.398438 0 L 15.398438 2.671875 L 17.882812 2.671875 L 17.882812 0 L 20.578125 0 L 20.578125 8.085938 L 17.882812 8.085938 L 17.882812 5.390625 L 15.421875 5.390625 L 15.421875 8.085938 L 12.703125 8.085938 M 24.140625 2.695312 L 21.761719 2.695312 L 21.761719 0 L 29.226562 0 L 29.226562 2.695312 L 26.835938 2.695312 L 26.835938 8.085938 L 24.140625 8.085938 M 30.410156 0 L 33.234375 0 L 34.96875 2.847656 L 36.703125 0 L 39.527344 0 L 39.527344 8.085938 L 36.832031 8.085938 L 36.832031 4.078125 L 34.945312 6.984375 L 33.058594 4.078125 L 33.058594 8.085938 L 30.410156 8.085938 M 40.863281 0 L 43.558594 0 L 43.558594 5.414062 L 47.378906 5.414062 L 47.378906 8.085938 L 40.863281 8.085938 " fill-opacity="1" fill-rule="nonzero"/><path fill="#e44d26" d="M 12.609375 55.195312 L 8.742188 11.789062 L 51.257812 11.789062 L 47.390625 55.171875 L 29.964844 60 " fill-opacity="1" fill-rule="nonzero"/><path fill="#f16529" d="M 30 56.308594 L 30 15.351562 L 47.378906 15.351562 L 44.0625 52.382812 " fill-opacity="1" fill-rule="nonzero"/><path fill="#ebebeb" d="M 16.640625 20.660156 L 30 20.660156 L 30 25.980469 L 22.476562 25.980469 L 22.96875 31.429688 L 30 31.429688 L 30 36.738281 L 18.09375 36.738281 M 18.328125 39.410156 L 23.671875 39.410156 L 24.046875 43.664062 L 30 45.257812 L 30 50.8125 L 19.078125 47.765625 " fill-opacity="1" fill-rule="nonzero"/><path fill="#ffffff" d="M 43.3125 20.660156 L 29.976562 20.660156 L 29.976562 25.980469 L 42.820312 25.980469 M 42.339844 31.429688 L 29.976562 31.429688 L 29.976562 36.75 L 36.539062 36.75 L 35.917969 43.664062 L 29.976562 45.257812 L 29.976562 50.789062 L 40.875 47.765625 " fill-opacity="1" fill-rule="nonzero"/></svg>