<svg xmlns="http://www.w3.org/2000/svg" xmlns:xlink="http://www.w3.org/1999/xlink" width="80" zoomAndPan="magnify" viewBox="0 0 60 60" height="80" preserveAspectRatio="xMidYMid meet" version="1.0"><defs><clipPath id="1ee6a9b2a4"><path d="M 8.730469 11 L 51.480469 11 L 51.480469 60 L 8.730469 60 Z M 8.730469 11 " clip-rule="nonzero"/></clipPath></defs><g clip-path="url(#1ee6a9b2a4)"><path fill="#ffffff" d="M 8.875 11.757812 L 8.882812 12.292969 C 8.886719 12.589844 9.738281 22.335938 10.777344 33.953125 L 12.664062 55.074219 L 21.152344 57.449219 C 25.820312 58.757812 29.734375 59.832031 29.855469 59.839844 C 29.972656 59.847656 33.9375 58.785156 38.671875 57.472656 C 46.257812 55.375 47.28125 55.058594 47.335938 54.796875 C 47.410156 54.433594 51.125 12.527344 51.121094 12.082031 L 51.117188 11.757812 Z M 8.875 11.757812 " fill-opacity="1" fill-rule="nonzero"/><path fill="#eaebec" d="M 21.21875 57.589844 L 12.65625 55.199219 L 12.542969 54.566406 C 12.445312 54 8.730469 12.527344 8.730469 11.980469 C 8.730469 11.78125 10.898438 11.757812 29.996094 11.757812 C 50.152344 11.757812 51.261719 11.773438 51.257812 12.007812 C 51.253906 13.03125 47.410156 55.054688 47.316406 55.136719 C 47.195312 55.242188 30.621094 59.859375 30.066406 59.941406 C 29.910156 59.964844 25.929688 58.90625 21.21875 57.589844 Z M 35.394531 49.132812 C 38.273438 48.339844 40.671875 47.648438 40.722656 47.601562 C 40.773438 47.550781 41.109375 44.136719 41.46875 40.015625 C 41.832031 35.894531 42.164062 32.25 42.207031 31.917969 L 42.289062 31.3125 L 29.855469 31.3125 L 29.855469 36.589844 L 36.566406 36.589844 L 36.5 36.914062 C 36.464844 37.089844 36.320312 38.605469 36.183594 40.285156 C 36.035156 42.0625 35.863281 43.40625 35.769531 43.5 C 35.679688 43.589844 34.308594 44.011719 32.730469 44.433594 L 29.855469 45.199219 L 29.855469 47.886719 C 29.855469 49.722656 29.902344 50.578125 30.007812 50.578125 C 30.09375 50.578125 32.519531 49.929688 35.394531 49.132812 Z M 42.207031 27.992188 C 42.113281 27.292969 41.269531 17.914062 41.269531 17.5625 C 41.269531 17.347656 40.777344 17.324219 35.632812 17.324219 L 29.996094 17.324219 L 29.996094 22.847656 L 32.53125 22.945312 C 33.921875 23 35.390625 23.078125 35.789062 23.125 L 36.511719 23.210938 L 36.6875 25.371094 C 36.785156 26.558594 36.902344 27.769531 36.945312 28.0625 L 37.027344 28.601562 L 42.289062 28.601562 Z M 42.207031 27.992188 " fill-opacity="1" fill-rule="nonzero"/><path fill="#f0be25" d="M 21.152344 57.449219 L 12.664062 55.074219 L 10.777344 33.953125 C 9.738281 22.335938 8.886719 12.589844 8.882812 12.292969 L 8.875 11.757812 L 51.117188 11.757812 L 51.121094 12.082031 C 51.125 12.527344 47.410156 54.433594 47.335938 54.796875 C 47.28125 55.058594 46.257812 55.375 38.671875 57.472656 C 33.9375 58.785156 29.972656 59.847656 29.855469 59.839844 C 29.734375 59.832031 25.820312 58.757812 21.152344 57.449219 Z M 35.402344 49.234375 C 38.335938 48.417969 40.777344 47.683594 40.828125 47.601562 C 40.878906 47.519531 41.230469 43.933594 41.609375 39.632812 C 41.984375 35.332031 42.324219 31.699219 42.363281 31.5625 C 42.429688 31.324219 41.929688 31.3125 33.316406 31.3125 L 24.203125 31.3125 L 24.589844 27.207031 C 24.804688 24.953125 24.984375 23.097656 24.988281 23.09375 C 24.996094 23.085938 26.335938 23.042969 27.964844 22.996094 C 30.632812 22.921875 36.140625 23.136719 36.324219 23.320312 C 36.394531 23.390625 36.847656 27.832031 36.847656 28.4375 C 36.847656 28.738281 36.886719 28.742188 39.613281 28.742188 L 42.378906 28.742188 L 42.3125 28.136719 C 42.277344 27.800781 42.042969 25.21875 41.792969 22.390625 L 41.335938 17.253906 L 30.671875 17.21875 C 22.1875 17.1875 20.007812 17.21875 20.003906 17.359375 C 20.003906 17.457031 19.941406 18.085938 19.867188 18.753906 C 19.683594 20.367188 18.292969 35.964844 18.292969 36.398438 L 18.292969 36.734375 L 36.445312 36.734375 L 36.363281 37.269531 C 36.320312 37.5625 36.175781 39.058594 36.050781 40.585938 C 35.921875 42.117188 35.777344 43.410156 35.726562 43.457031 C 35.59375 43.585938 30.253906 45.011719 29.921875 45.007812 C 29.765625 45.007812 28.386719 44.664062 26.855469 44.246094 L 24.074219 43.484375 L 23.972656 42.285156 C 23.914062 41.625 23.832031 40.6875 23.78125 40.195312 L 23.695312 39.304688 L 18.292969 39.304688 L 18.300781 39.839844 C 18.3125 40.839844 18.960938 47.582031 19.054688 47.675781 C 19.164062 47.785156 29.535156 50.699219 29.855469 50.710938 C 29.972656 50.714844 32.46875 50.050781 35.402344 49.234375 Z M 35.402344 49.234375 " fill-opacity="1" fill-rule="nonzero"/><path fill="#e4a126" d="M 21.152344 57.449219 L 12.664062 55.074219 L 10.777344 33.953125 C 9.738281 22.335938 8.886719 12.589844 8.882812 12.292969 L 8.875 11.757812 L 51.117188 11.757812 L 51.121094 12.082031 C 51.125 12.527344 47.410156 54.433594 47.335938 54.796875 C 47.28125 55.058594 46.257812 55.375 38.671875 57.472656 C 33.9375 58.785156 29.972656 59.847656 29.855469 59.839844 C 29.734375 59.832031 25.820312 58.757812 21.152344 57.449219 Z M 36.980469 54.269531 C 40.714844 53.242188 43.839844 52.324219 43.925781 52.238281 C 44.058594 52.097656 47.28125 16.757812 47.269531 15.578125 L 47.265625 15.183594 L 29.996094 15.183594 L 29.996094 17.183594 L 25 17.183594 C 21.101562 17.183594 20.007812 17.222656 20.003906 17.359375 C 20.003906 17.457031 19.941406 18.085938 19.867188 18.753906 C 19.683594 20.367188 18.292969 35.964844 18.292969 36.398438 L 18.292969 36.734375 L 29.996094 36.734375 L 29.996094 40.875 C 29.996094 44.089844 29.957031 45.011719 29.816406 45.007812 C 29.71875 45.007812 28.386719 44.664062 26.855469 44.246094 L 24.074219 43.484375 L 23.972656 42.285156 C 23.914062 41.625 23.832031 40.6875 23.78125 40.195312 L 23.695312 39.304688 L 18.292969 39.304688 L 18.300781 39.839844 C 18.316406 41.371094 18.980469 47.617188 19.132812 47.714844 C 19.230469 47.773438 21.710938 48.484375 24.652344 49.300781 L 29.996094 50.777344 L 29.996094 53.460938 C 29.996094 54.9375 30.039062 56.144531 30.09375 56.144531 C 30.148438 56.144531 33.246094 55.300781 36.980469 54.269531 Z M 24.574219 27.246094 C 24.78125 25.011719 24.976562 23.15625 25.011719 23.125 C 25.046875 23.09375 26.179688 23.039062 27.535156 23 L 29.996094 22.933594 L 29.996094 31.3125 L 24.203125 31.3125 Z M 24.574219 27.246094 " fill-opacity="1" fill-rule="nonzero"/></g><path fill="#e4a126" d="M 22.289062 6.691406 L 22.289062 5.335938 L 26.144531 5.335938 L 26.144531 0.0585938 L 28.855469 0.0585938 L 28.855469 8.046875 L 22.289062 8.046875 Z M 30.140625 6.976562 L 30.140625 5.90625 L 31.921875 5.90625 C 32.90625 5.90625 33.707031 5.871094 33.707031 5.828125 C 33.707031 5.78125 32.90625 4.875 31.921875 3.8125 L 30.140625 1.878906 L 30.140625 0.0585938 L 37.558594 0.0585938 L 37.558594 2.1875 L 35.820312 2.230469 L 34.078125 2.269531 L 37.703125 6.175781 L 37.703125 8.046875 L 30.140625 8.046875 Z M 30.140625 6.976562 " fill-opacity="1" fill-rule="nonzero"/></svg>