<svg xmlns="http://www.w3.org/2000/svg" width="80" zoomAndPan="magnify" viewBox="0 0 60 60" height="80" preserveAspectRatio="xMidYMid meet" xmlns:v="https://vecta.io/nano"><defs><clipPath id="A"><path d="M0 21.328h60v17.25H0zm0 0" clip-rule="nonzero"/></clipPath></defs><g clip-path="url(#A)"><path fill="#ff2d20" d="M22.879 25.293v7.762h2.844v1.34h-4.359v-9.102zm8.188 3.859v-.816H32.5v6.059h-1.434v-.82c-.195.301-.469.543-.824.715s-.711.258-1.07.258c-.469 0-.895-.082-1.277-.254-.383-.16-.711-.395-.996-.695-.277-.297-.492-.633-.645-1.012-.156-.395-.234-.801-.23-1.223s.078-.828.23-1.215.363-.723.645-1.02.613-.535.996-.695c.383-.172.809-.254 1.277-.254.359 0 .715.086 1.07.258s.629.414.824.715zm-.133 2.953c.09-.238.133-.488.133-.742a2.05 2.05 0 0 0-.133-.742 1.87 1.87 0 0 0-.367-.609 1.84 1.84 0 0 0-.574-.418c-.223-.102-.473-.152-.742-.152s-.52.051-.738.152a1.89 1.89 0 0 0-.566.418c-.16.18-.281.383-.359.609a2.2 2.2 0 0 0-.129.742c0 .262.043.508.129.742.078.227.199.43.359.609a1.81 1.81 0 0 0 .566.418c.219.102.465.156.738.156s.52-.055.742-.156a1.78 1.78 0 0 0 .574-.418 1.87 1.87 0 0 0 .367-.609zm2.699 2.285v-6.055h3.898v1.395h-2.465v4.66zm9.098-5.238v-.816h1.434v6.059H42.73v-.82c-.195.301-.469.543-.824.715s-.711.258-1.07.258c-.469 0-.895-.082-1.277-.254-.383-.16-.711-.395-.996-.695-.277-.297-.492-.633-.645-1.012-.156-.395-.234-.801-.23-1.223s.078-.828.23-1.215.363-.723.645-1.02.613-.535.996-.695c.383-.172.809-.254 1.277-.254.359 0 .715.086 1.07.258s.629.414.824.715zm-.133 2.953c.09-.238.133-.488.133-.742 0-.262-.047-.508-.133-.742a1.87 1.87 0 0 0-.367-.609 1.84 1.84 0 0 0-.574-.418c-.223-.102-.473-.152-.742-.152s-.52.051-.738.152a1.89 1.89 0 0 0-.566.418 1.86 1.86 0 0 0-.363.609c-.082.242-.125.488-.125.742 0 .262.043.508.125.742a1.86 1.86 0 0 0 .363.609 1.81 1.81 0 0 0 .566.418c.219.102.465.156.738.156s.52-.055.742-.156a1.78 1.78 0 0 0 .574-.418 1.87 1.87 0 0 0 .367-.609zm7.32-3.77h1.453l-2.355 6.055h-1.805l-2.355-6.055h1.457l1.801 4.637zm4.582-.156c1.953 0 3.285 1.711 3.035 3.711h-4.758c0 .523.531 1.531 1.801 1.531 1.094 0 1.824-.945 1.824-.949l.969.742c-.867.914-1.574 1.332-2.687 1.332-1.984 0-3.332-1.238-3.332-3.184 0-1.758 1.391-3.184 3.148-3.184zm-1.719 2.656h3.438c-.012-.117-.195-1.531-1.73-1.531s-1.695 1.414-1.707 1.531zm5.691 3.555v-9.098h1.434v9.098zm-41.477-9.168c.008.023.012.047.012.07v3.695a.25.25 0 0 1-.137.23l-3.141 1.789v3.535c0 .105-.047.184-.137.234l-6.555 3.727c-.016.012-.031.016-.051.02-.062.02-.109.02-.156.008-.008 0-.016-.004-.023-.008-.016-.004-.027-.012-.043-.02L.211 34.777c-.094-.051-.137-.129-.137-.234V23.461a.43.43 0 0 1 .008-.07l.012-.023a.19.19 0 0 1 .016-.043c.008-.008.012-.016.02-.023s.016-.023.023-.031.02-.012.027-.02.02-.016.031-.023l3.277-1.863c.09-.051.18-.051.273 0l3.277 1.863a.17.17 0 0 1 .027.023c.012.008.02.012.027.02s.016.02.027.031c.004.008.012.016.016.023l.02.043c.004.008.008.016.008.023.008.023.012.047.012.07v6.922l2.73-1.551v-3.539c0-.023.004-.047.008-.07l.012-.023a.19.19 0 0 1 .016-.043c.004-.008.012-.016.02-.023s.016-.023.023-.031.02-.012.027-.02.02-.02.031-.023l3.277-1.863c.09-.051.18-.051.273 0l3.277 1.863c.012.008.02.016.027.023a.07.07 0 0 1 .027.02c.012.008.016.02.023.031s.016.016.02.023l.02.043c.004.008.008.016.008.023zm-.535 3.609v-3.074l-1.148.652-1.582.902v3.07zm-3.277 5.559v-3.078l-1.559.879-4.449 2.508v3.105l6.008-3.418zM.621 23.926v10.465l6.008 3.414v-3.102l-3.141-1.754v-.004c-.012-.004-.02-.012-.031-.02s-.016-.012-.023-.02l-.004-.004c-.008-.008-.012-.016-.02-.027s-.016-.016-.023-.027-.008-.023-.012-.035-.012-.016-.016-.027-.004-.027-.004-.039-.004-.023-.004-.031V25.48l-1.586-.902zm3.004-2.02l-2.73 1.555 2.73 1.551 2.73-1.551zm1.418 9.688l1.586-.898v-6.77l-1.148.652-1.582.902v6.766zm8.414-7.855l-2.73 1.555 2.73 1.551 2.73-1.551zm-.273 3.574l-1.586-.902-1.145-.652v3.074l1.582.898 1.148.652zm-6.281 6.922l4.004-2.258 2-1.129-2.727-1.551-3.141 1.785-2.863 1.629zm0 0" fill-rule="evenodd"/></g></svg>