<svg xmlns="http://www.w3.org/2000/svg" width="80" zoomAndPan="magnify" viewBox="0 0 60 60" height="80" preserveAspectRatio="xMidYMid meet" xmlns:v="https://vecta.io/nano"><defs><clipPath id="A"><path d="M0 21.309h60v17.25H0zm0 0" clip-rule="nonzero"/></clipPath></defs><g clip-path="url(#A)"><path fill="#737373" d="M22.863 25.273v7.762h2.848v1.336h-4.363v-9.098zm8.203 3.859v-.82h1.441v6.059h-1.441v-.816c-.191.301-.465.539-.824.715a2.45 2.45 0 0 1-1.074.258c-.465 0-.891-.086-1.277-.254a2.92 2.92 0 0 1-.996-.695 3.18 3.18 0 0 1-.648-1.012c-.156-.395-.234-.801-.23-1.223a3.26 3.26 0 0 1 .23-1.215 3.23 3.23 0 0 1 .648-1.023c.281-.297.613-.531.996-.695s.813-.254 1.277-.254c.359 0 .719.09 1.074.262s.633.41.824.715zm-.129 2.953c.086-.242.133-.488.129-.742 0-.262-.043-.508-.129-.742a1.88 1.88 0 0 0-.371-.609 1.78 1.78 0 0 0-.574-.418c-.223-.102-.473-.156-.746-.156a1.76 1.76 0 0 0-.738.156c-.219.105-.406.242-.566.418a1.86 1.86 0 0 0-.363.609c-.082.238-.125.488-.125.742s.043.508.125.738.199.434.363.613.352.313.566.414c.223.105.469.156.738.156s.523-.051.746-.156a1.77 1.77 0 0 0 .574-.414 1.88 1.88 0 0 0 .371-.609zm2.703 2.285v-6.059h3.906v1.395h-2.469v4.664zm9.113-5.238v-.82h1.441v6.059h-1.441v-.816c-.191.301-.465.539-.824.715a2.45 2.45 0 0 1-1.074.258c-.465 0-.891-.086-1.277-.254a2.92 2.92 0 0 1-.996-.695 3.18 3.18 0 0 1-.648-1.012c-.156-.395-.234-.801-.23-1.223a3.26 3.26 0 0 1 .23-1.215 3.23 3.23 0 0 1 .648-1.023c.281-.297.613-.531.996-.695s.813-.254 1.277-.254c.359 0 .719.09 1.074.262s.633.41.824.715zm-.129 2.953c.086-.242.133-.488.129-.742 0-.262-.043-.508-.129-.742a1.88 1.88 0 0 0-.371-.609 1.78 1.78 0 0 0-.574-.418c-.223-.102-.473-.156-.746-.156a1.76 1.76 0 0 0-.738.156c-.219.105-.406.242-.566.418s-.281.383-.363.609a2.18 2.18 0 0 0-.125.742c0 .258.043.508.125.738s.199.434.363.613.352.313.566.414c.223.105.469.156.738.156s.523-.051.746-.156a1.77 1.77 0 0 0 .574-.414 1.88 1.88 0 0 0 .371-.609zm7.332-3.773h1.457l-2.359 6.059h-1.809l-2.359-6.059h1.457l1.809 4.641zm4.594-.152c1.957 0 3.293 1.707 3.043 3.711H52.82c0 .52.539 1.531 1.809 1.531 1.094 0 1.828-.949 1.828-.949l.969.742c-.867.914-1.578 1.332-2.691 1.332-1.988 0-3.34-1.238-3.34-3.184 0-1.758 1.395-3.184 3.156-3.184zm-1.727 2.656h3.449c-.012-.117-.199-1.531-1.734-1.531s-1.703 1.414-1.715 1.531zm5.703 3.555v-9.098h1.438v9.098zm-41.559-9.172c.008.023.012.047.012.07v3.695c0 .105-.047.184-.137.234l-3.148 1.785v3.539c0 .105-.047.184-.137.234l-6.566 3.727c-.016.008-.031.016-.051.02-.062.02-.109.02-.156.008-.008 0-.016-.008-.023-.008-.016-.008-.031-.012-.043-.02l-6.57-3.727c-.09-.051-.137-.129-.137-.234V23.441c0-.027.004-.051.012-.07 0-.012.004-.016.008-.023.008-.016.012-.031.02-.043s.012-.016.016-.023c.012-.012.016-.023.027-.031a.07.07 0 0 1 .027-.02c.008-.008.016-.02.027-.023l3.285-1.863c.09-.051.184-.051.273 0l3.285 1.863c.012.004.02.016.031.023s.016.012.023.02.02.02.027.031.012.016.016.023.016.027.02.043c.004.008.008.012.008.023a.19.19 0 0 1 .012.07v6.922l2.734-1.555V25.27c0-.023.004-.047.012-.07 0-.008.008-.012.008-.02.008-.016.012-.031.02-.043s.012-.016.02-.023.012-.023.023-.031.016-.016.027-.02.02-.02.027-.023l3.285-1.863c.09-.055.184-.055.273 0l3.285 1.863c.012.004.02.016.031.023s.016.012.027.02.016.02.023.031.012.016.016.023.016.027.02.043c.004.008.008.012.008.02zm-.535 3.609v-3.07l-1.148.652-1.59.898v3.074zm-3.285 5.559v-3.074l-1.562.879-4.457 2.508v3.105zM.559 23.906v10.461l6.023 3.418v-3.102l-3.148-1.758c-.012-.004-.02-.016-.031-.023s-.016-.012-.023-.02-.016-.02-.023-.027a.07.07 0 0 1-.02-.027h-.004l-.012-.035c-.004-.008-.012-.02-.012-.027v-.004c-.004-.012-.008-.023-.008-.039 0-.008-.004-.02-.004-.027v-7.238l-1.586-.898zm3.012-2.02L.836 23.441l2.734 1.551 2.734-1.551zm1.422 9.688l1.59-.902v-6.766l-1.148.652-1.59.902v6.766zm8.43-7.855l-2.734 1.551 2.734 1.555 2.734-1.555zm-.273 3.57l-1.586-.898-1.148-.652v3.07l1.586.902 1.148.652zm-6.293 6.926l4.012-2.258 2.004-1.129-2.734-1.551-3.145 1.785-2.871 1.629zm0 0" fill-rule="evenodd"/></g></svg>