<svg xmlns="http://www.w3.org/2000/svg" width="80" zoomAndPan="magnify" viewBox="0 0 60 60" height="80" preserveAspectRatio="xMidYMid meet" xmlns:v="https://vecta.io/nano"><defs><clipPath id="A"><path d="M0 21.109h25v18H0zm0 0" clip-rule="nonzero"/></clipPath><clipPath id="B"><path d="M25 21.109h31V38H25zm0 0" clip-rule="nonzero"/></clipPath></defs><g clip-path="url(#A)"><path fill="#737373" d="M24.426 24.996c-.945 5.195-2.18 8.969-3.727 11.316-1.203 1.813-2.52 2.723-3.957 2.723-.383 0-.855-.117-1.414-.348v-1.254a6.85 6.85 0 0 0 .965.063c.668 0 1.207-.187 1.621-.562.492-.457.738-.969.738-1.539 0-.387-.191-1.187-.574-2.395l-2.535-8.012h2.273l1.824 5.992c.41 1.359.582 2.316.512 2.848.996-2.707 1.699-5.648 2.086-8.84h2.195M14.387 35.348h-2.32c-.082-3.961-.309-7.699-.676-11.191h-.02L7.848 35.348H6.082L2.574 24.156h-.02c-.262 3.352-.426 7.09-.492 11.191H-.055c.137-4.992.477-9.672 1.023-14.039h2.875l3.34 10.316h.02l3.355-10.316h2.75c.602 5.117.957 9.797 1.066 14.039"/></g><g clip-path="url(#B)"><path fill="#a6a6a6" d="M55.34 35.355h-6.57V21.316h2.211v12.316h4.359v1.723m-16.539-2.801c-.559-.914-.84-2.379-.84-4.414 0-3.539 1.059-5.305 3.168-5.305 1.105 0 1.918.422 2.441 1.266.559.918.84 2.379.84 4.367 0 3.57-1.059 5.355-3.168 5.355-1.105 0-1.918-.426-2.441-1.27m8.238 3.145l-2.535-1.273c.227-.187.441-.391.637-.625 1.078-1.289 1.621-3.195 1.621-5.715 0-4.648-1.793-6.965-5.395-6.965-1.762 0-3.137.59-4.109 1.77-1.082 1.289-1.625 3.191-1.625 5.695 0 2.473.477 4.273 1.434 5.434.875 1.039 2.195 1.559 3.957 1.559a6.27 6.27 0 0 0 1.809-.246l3.309 1.957.902-1.582M34.68 31.48c0 1.191-.434 2.176-1.293 2.926-.859.766-2.008 1.145-3.461 1.145-1.355 0-2.66-.441-3.945-1.312l.594-1.207c1.094.555 2.09.832 2.969.832.836 0 1.488-.187 1.965-.559a1.93 1.93 0 0 0 .754-1.562c0-.832-.574-1.543-1.625-2.145l-2.906-1.672c-1.051-.777-1.578-1.613-1.578-2.992 0-1.137.395-2.047 1.18-2.754.785-.699 1.793-1.051 3.047-1.051a6.26 6.26 0 0 1 3.508 1.039l-.535 1.207c-.898-.387-1.793-.582-2.66-.582-.707 0-1.254.172-1.637.52s-.621.789-.621 1.332c0 .832.586 1.551 1.672 2.16l2.965 1.691c1.082.773 1.625 1.609 1.625 2.973"/></g><path fill="#a6a6a6" d="M56.578 35.355h.367v-1.43h.477v-.289h-1.344v.289h.5zm2.797 0h.348v-1.723h-.52l-.426 1.176-.457-1.176h-.504v1.723h.328v-1.309h.02l.48 1.309h.25l.484-1.309v1.309"/></svg>