<svg xmlns="http://www.w3.org/2000/svg" width="80" zoomAndPan="magnify" viewBox="0 0 60 60" height="80" preserveAspectRatio="xMidYMid meet" xmlns:v="https://vecta.io/nano"><defs><clipPath id="A"><path d="M.789 14.598h58.422v30.648H.789zm0 0" clip-rule="nonzero"/></clipPath><clipPath id="B"><path d="M.844 29.922c0 8.43 13.055 15.266 29.156 15.266s29.156-6.836 29.156-15.266S46.102 14.656 30 14.656.844 21.492.844 29.922" clip-rule="nonzero"/></clipPath><clipPath id="C"><path d="M.844 29.922c0 8.43 13.055 15.266 29.156 15.266s29.156-6.836 29.156-15.266S46.102 14.656 30 14.656.844 21.492.844 29.922" clip-rule="nonzero"/></clipPath><radialGradient gradientTransform="matrix(1.002356, 0, 0, 0.997644, 18.349243, 20.024042)" gradientUnits="userSpaceOnUse" r="38.196" cx="0" id="D" cy="0" fx="0" fy="0"><stop stop-color="rgb(85.099792%, 85.099792%, 85.099792%)" offset="0"/><stop stop-color="rgb(85.099792%, 85.099792%, 85.099792%)" offset=".25"/><stop stop-color="rgb(85.054016%, 85.054016%, 85.054016%)" offset=".297"/><stop stop-color="rgb(84.780884%, 84.780884%, 84.780884%)" offset=".301"/><stop stop-color="rgb(84.327698%, 84.327698%, 84.327698%)" offset=".305"/><stop stop-color="rgb(83.874512%, 83.874512%, 83.874512%)" offset=".309"/><stop stop-color="rgb(83.421326%, 83.421326%, 83.421326%)" offset=".313"/><stop stop-color="rgb(82.96814%, 82.96814%, 82.96814%)" offset=".316"/><stop stop-color="rgb(82.514954%, 82.514954%, 82.514954%)" offset=".32"/><stop stop-color="rgb(82.063293%, 82.063293%, 82.063293%)" offset=".324"/><stop stop-color="rgb(81.610107%, 81.610107%, 81.610107%)" offset=".328"/><stop stop-color="rgb(81.156921%, 81.156921%, 81.156921%)" offset=".332"/><stop stop-color="rgb(80.703735%, 80.703735%, 80.703735%)" offset=".336"/><stop stop-color="rgb(80.250549%, 80.250549%, 80.250549%)" offset=".34"/><stop stop-color="rgb(79.797363%, 79.797363%, 79.797363%)" offset=".344"/><stop stop-color="rgb(79.344177%, 79.344177%, 79.344177%)" offset=".348"/><stop stop-color="rgb(78.890991%, 78.890991%, 78.890991%)" offset=".352"/><stop stop-color="rgb(78.437805%, 78.437805%, 78.437805%)" offset=".355"/><stop stop-color="rgb(77.984619%, 77.984619%, 77.984619%)" offset=".359"/><stop stop-color="rgb(77.531433%, 77.531433%, 77.531433%)" offset=".363"/><stop stop-color="rgb(77.078247%, 77.078247%, 77.078247%)" offset=".367"/><stop stop-color="rgb(76.625061%, 76.625061%, 76.625061%)" offset=".371"/><stop stop-color="rgb(76.171875%, 76.171875%, 76.171875%)" offset=".375"/><stop stop-color="rgb(75.718689%, 75.718689%, 75.718689%)" offset=".379"/><stop stop-color="rgb(75.265503%, 75.265503%, 75.265503%)" offset=".383"/><stop stop-color="rgb(74.812317%, 74.812317%, 74.812317%)" offset=".387"/><stop stop-color="rgb(74.359131%, 74.359131%, 74.359131%)" offset=".391"/><stop stop-color="rgb(73.905945%, 73.905945%, 73.905945%)" offset=".395"/><stop stop-color="rgb(73.452759%, 73.452759%, 73.452759%)" offset=".398"/><stop stop-color="rgb(72.999573%, 72.999573%, 72.999573%)" offset=".402"/><stop stop-color="rgb(72.546387%, 72.546387%, 72.546387%)" offset=".406"/><stop stop-color="rgb(72.093201%, 72.093201%, 72.093201%)" offset=".41"/><stop stop-color="rgb(71.640015%, 71.640015%, 71.640015%)" offset=".414"/><stop stop-color="rgb(71.186829%, 71.186829%, 71.186829%)" offset=".418"/><stop stop-color="rgb(70.735168%, 70.735168%, 70.735168%)" offset=".422"/><stop stop-color="rgb(70.281982%, 70.281982%, 70.281982%)" offset=".426"/><stop stop-color="rgb(69.828796%, 69.828796%, 69.828796%)" offset=".43"/><stop stop-color="rgb(69.37561%, 69.37561%, 69.37561%)" offset=".434"/><stop stop-color="rgb(68.922424%, 68.922424%, 68.922424%)" offset=".438"/><stop stop-color="rgb(68.469238%, 68.469238%, 68.469238%)" offset=".441"/><stop stop-color="rgb(68.016052%, 68.016052%, 68.016052%)" offset=".445"/><stop stop-color="rgb(67.562866%, 67.562866%, 67.562866%)" offset=".449"/><stop stop-color="rgb(67.10968%, 67.10968%, 67.10968%)" offset=".453"/><stop stop-color="rgb(66.656494%, 66.656494%, 66.656494%)" offset=".457"/><stop stop-color="rgb(66.203308%, 66.203308%, 66.203308%)" offset=".461"/><stop stop-color="rgb(65.750122%, 65.750122%, 65.750122%)" offset=".465"/><stop stop-color="rgb(65.296936%, 65.296936%, 65.296936%)" offset=".469"/><stop stop-color="rgb(64.84375%, 64.84375%, 64.84375%)" offset=".473"/><stop stop-color="rgb(64.390564%, 64.390564%, 64.390564%)" offset=".477"/><stop stop-color="rgb(63.937378%, 63.937378%, 63.937378%)" offset=".48"/><stop stop-color="rgb(63.484192%, 63.484192%, 63.484192%)" offset=".484"/><stop stop-color="rgb(63.031006%, 63.031006%, 63.031006%)" offset=".488"/><stop stop-color="rgb(62.57782%, 62.57782%, 62.57782%)" offset=".492"/><stop stop-color="rgb(62.124634%, 62.124634%, 62.124634%)" offset=".496"/><stop stop-color="rgb(61.671448%, 61.671448%, 61.671448%)" offset=".5"/><stop stop-color="rgb(61.218262%, 61.218262%, 61.218262%)" offset=".504"/><stop stop-color="rgb(60.765076%, 60.765076%, 60.765076%)" offset=".508"/><stop stop-color="rgb(60.31189%, 60.31189%, 60.31189%)" offset=".512"/><stop stop-color="rgb(59.858704%, 59.858704%, 59.858704%)" offset=".516"/><stop stop-color="rgb(59.407043%, 59.407043%, 59.407043%)" offset=".52"/><stop stop-color="rgb(58.953857%, 58.953857%, 58.953857%)" offset=".523"/><stop stop-color="rgb(58.500671%, 58.500671%, 58.500671%)" offset=".527"/><stop stop-color="rgb(58.047485%, 58.047485%, 58.047485%)" offset=".531"/><stop stop-color="rgb(57.594299%, 57.594299%, 57.594299%)" offset=".535"/><stop stop-color="rgb(57.141113%, 57.141113%, 57.141113%)" offset=".539"/><stop stop-color="rgb(56.687927%, 56.687927%, 56.687927%)" offset=".543"/><stop stop-color="rgb(56.234741%, 56.234741%, 56.234741%)" offset=".547"/><stop stop-color="rgb(55.781555%, 55.781555%, 55.781555%)" offset=".551"/><stop stop-color="rgb(55.328369%, 55.328369%, 55.328369%)" offset=".555"/><stop stop-color="rgb(54.875183%, 54.875183%, 54.875183%)" offset=".559"/><stop stop-color="rgb(54.421997%, 54.421997%, 54.421997%)" offset=".563"/><stop stop-color="rgb(53.968811%, 53.968811%, 53.968811%)" offset=".566"/><stop stop-color="rgb(53.515625%, 53.515625%, 53.515625%)" offset=".57"/><stop stop-color="rgb(53.062439%, 53.062439%, 53.062439%)" offset=".574"/><stop stop-color="rgb(52.609253%, 52.609253%, 52.609253%)" offset=".578"/><stop stop-color="rgb(52.156067%, 52.156067%, 52.156067%)" offset=".582"/><stop stop-color="rgb(51.702881%, 51.702881%, 51.702881%)" offset=".586"/><stop stop-color="rgb(51.249695%, 51.249695%, 51.249695%)" offset=".59"/><stop stop-color="rgb(50.796509%, 50.796509%, 50.796509%)" offset=".594"/><stop stop-color="rgb(50.343323%, 50.343323%, 50.343323%)" offset=".598"/><stop stop-color="rgb(49.890137%, 49.890137%, 49.890137%)" offset=".602"/><stop stop-color="rgb(49.436951%, 49.436951%, 49.436951%)" offset=".605"/><stop stop-color="rgb(48.983765%, 48.983765%, 48.983765%)" offset=".609"/><stop stop-color="rgb(48.530579%, 48.530579%, 48.530579%)" offset=".613"/><stop stop-color="rgb(48.078918%, 48.078918%, 48.078918%)" offset=".617"/><stop stop-color="rgb(47.625732%, 47.625732%, 47.625732%)" offset=".621"/><stop stop-color="rgb(47.172546%, 47.172546%, 47.172546%)" offset=".625"/><stop stop-color="rgb(46.71936%, 46.71936%, 46.71936%)" offset=".629"/><stop stop-color="rgb(46.266174%, 46.266174%, 46.266174%)" offset=".633"/><stop stop-color="rgb(45.812988%, 45.812988%, 45.812988%)" offset=".637"/><stop stop-color="rgb(45.359802%, 45.359802%, 45.359802%)" offset=".641"/><stop stop-color="rgb(44.906616%, 44.906616%, 44.906616%)" offset=".645"/><stop stop-color="rgb(44.45343%, 44.45343%, 44.45343%)" offset=".648"/><stop stop-color="rgb(44.000244%, 44.000244%, 44.000244%)" offset=".652"/><stop stop-color="rgb(43.547058%, 43.547058%, 43.547058%)" offset=".656"/><stop stop-color="rgb(43.093872%, 43.093872%, 43.093872%)" offset=".66"/><stop stop-color="rgb(42.640686%, 42.640686%, 42.640686%)" offset=".664"/><stop stop-color="rgb(42.1875%, 42.1875%, 42.1875%)" offset=".668"/><stop stop-color="rgb(41.734314%, 41.734314%, 41.734314%)" offset=".672"/><stop stop-color="rgb(41.281128%, 41.281128%, 41.281128%)" offset=".676"/><stop stop-color="rgb(40.827942%, 40.827942%, 40.827942%)" offset=".68"/><stop stop-color="rgb(40.374756%, 40.374756%, 40.374756%)" offset=".684"/><stop stop-color="rgb(39.92157%, 39.92157%, 39.92157%)" offset=".688"/><stop stop-color="rgb(39.468384%, 39.468384%, 39.468384%)" offset=".691"/><stop stop-color="rgb(39.015198%, 39.015198%, 39.015198%)" offset=".695"/><stop stop-color="rgb(38.562012%, 38.562012%, 38.562012%)" offset=".699"/><stop stop-color="rgb(38.108826%, 38.108826%, 38.108826%)" offset=".703"/><stop stop-color="rgb(37.65564%, 37.65564%, 37.65564%)" offset=".707"/><stop stop-color="rgb(37.202454%, 37.202454%, 37.202454%)" offset=".711"/><stop stop-color="rgb(36.750793%, 36.750793%, 36.750793%)" offset=".715"/><stop stop-color="rgb(36.297607%, 36.297607%, 36.297607%)" offset=".719"/><stop stop-color="rgb(35.844421%, 35.844421%, 35.844421%)" offset=".723"/><stop stop-color="rgb(35.391235%, 35.391235%, 35.391235%)" offset=".727"/><stop stop-color="rgb(34.938049%, 34.938049%, 34.938049%)" offset=".73"/><stop stop-color="rgb(34.484863%, 34.484863%, 34.484863%)" offset=".734"/><stop stop-color="rgb(34.031677%, 34.031677%, 34.031677%)" offset=".738"/><stop stop-color="rgb(33.578491%, 33.578491%, 33.578491%)" offset=".742"/><stop stop-color="rgb(33.125305%, 33.125305%, 33.125305%)" offset=".746"/><stop stop-color="rgb(32.899475%, 32.899475%, 32.899475%)" offset=".75"/></radialGradient></defs><g clip-path="url(#A)"><g clip-path="url(#B)"><g clip-path="url(#C)"><path fill="url(#D)" d="M.844 14.656v30.531h58.313V14.656zm0 0"/></g></g></g><path fill="#a6a6a6" d="M30 44.055c15.473 0 28.016-6.328 28.016-14.133S45.473 15.789 30 15.789 1.984 22.117 1.984 29.922 14.527 44.055 30 44.055"/><path fill="#545454" d="M16.684 31.676c1.273 0 2.223-.234 2.824-.695.594-.457 1.004-1.246 1.219-2.348.203-1.027.125-1.746-.227-2.133-.359-.398-1.137-.598-2.309-.598H16.16l-1.129 5.773zm-6.648 7.109c-.094 0-.184-.043-.246-.113a.33.33 0 0 1-.066-.262l2.988-15.297c.027-.148.16-.254.313-.254h6.437c2.023 0 3.527.547 4.477 1.625s1.246 2.598.871 4.504a7.03 7.03 0 0 1-.773 2.141 7.05 7.05 0 0 1-1.426 1.777 6.19 6.19 0 0 1-2.344 1.398c-.844.273-1.926.414-3.223.414h-2.605l-.746 3.813a.31.31 0 0 1-.309.254zm0 0"/><path fill="#fff" d="M16.418 26.215h1.773c1.418 0 1.906.313 2.074.496.277.305.332.949.152 1.863-.199 1.023-.57 1.75-1.102 2.156-.547.418-1.43.629-2.633.629h-1.27zm3.043-3.672h-6.437a.63.63 0 0 0-.621.508L9.414 38.352c-.035.184.012.375.133.52s.297.23.488.23h3.348c.301 0 .563-.215.621-.512l.695-3.555h2.344c1.328 0 2.445-.145 3.32-.43.902-.293 1.73-.785 2.465-1.469.605-.555 1.105-1.18 1.484-1.852s.648-1.426.809-2.238c.391-2.004.074-3.609-.945-4.77-1.012-1.152-2.598-1.734-4.715-1.734m-4.812 9.445h2.035c1.352 0 2.355-.25 3.016-.758s1.109-1.352 1.34-2.535c.223-1.137.121-1.941-.305-2.406s-1.27-.703-2.543-.703h-2.293l-1.25 6.402m4.812-8.816c1.938 0 3.348.508 4.238 1.52s1.156 2.422.801 4.238a6.77 6.77 0 0 1-.742 2.047c-.348.621-.801 1.188-1.359 1.699-.672.621-1.414 1.066-2.23 1.332s-1.859.395-3.125.395h-2.867l-.793 4.066h-3.348l2.988-15.297h6.437"/><path fill="#545454" d="M32.488 34.719c-.098 0-.184-.043-.246-.113a.33.33 0 0 1-.066-.262l1.32-6.77c.129-.645.098-1.105-.086-1.301-.109-.117-.445-.32-1.434-.32h-2.395l-1.66 8.512c-.031.148-.16.254-.312.254h-3.32c-.098 0-.184-.043-.246-.113a.33.33 0 0 1-.066-.262l2.988-15.297c.027-.148.16-.258.309-.258h3.324a.31.31 0 0 1 .242.117c.063.07.086.168.066.258l-.719 3.695h2.574c1.961 0 3.293.344 4.066 1.051.793.723 1.039 1.879.734 3.434l-1.391 7.121c-.027.148-.16.254-.309.254zm0 0"/><path fill="#fff" d="M30.598 18.477h-3.324c-.301 0-.562.215-.621.508l-2.984 15.301c-.039.184.012.375.133.52a.63.63 0 0 0 .488.23h3.32a.63.63 0 0 0 .621-.512l1.613-8.254h2.133c.988 0 1.195.211 1.203.219.059.063.137.359.008 1.027l-1.32 6.77c-.039.184.012.375.133.52a.63.63 0 0 0 .488.23h3.375c.301 0 .563-.215.621-.512l1.387-7.117c.328-1.672.047-2.926-.828-3.727-.836-.766-2.234-1.137-4.281-1.137H30.57l.648-3.316c.035-.184-.012-.375-.133-.52a.63.63 0 0 0-.488-.23m0 .629l-.793 4.066h2.957c1.863 0 3.148.324 3.855.969s.918 1.695.633 3.145l-1.387 7.117h-3.375l1.32-6.766c.148-.773.094-1.297-.168-1.578s-.816-.418-1.664-.418H29.32l-1.711 8.762h-3.32l2.984-15.297h3.324"/><path fill="#545454" d="M42.816 31.676c1.273 0 2.223-.234 2.824-.695.594-.457 1.004-1.246 1.223-2.348.199-1.027.121-1.746-.23-2.133-.359-.398-1.133-.598-2.309-.598h-2.031l-1.129 5.773zm-6.648 7.109c-.094 0-.184-.043-.246-.113a.33.33 0 0 1-.066-.262l2.988-15.297c.031-.148.16-.254.313-.254h6.438c2.023 0 3.531.547 4.477 1.625.953 1.082 1.246 2.598.875 4.504a7.14 7.14 0 0 1-.777 2.141 7.12 7.12 0 0 1-1.422 1.777c-.699.652-1.488 1.121-2.348 1.398-.844.273-1.926.414-3.219.414H40.57l-.742 3.813c-.031.148-.16.254-.312.254zm0 0"/><path fill="#fff" d="M42.555 26.215h1.77c1.418 0 1.91.313 2.074.496.277.305.332.949.152 1.863-.199 1.023-.57 1.75-1.102 2.156-.547.418-1.43.629-2.633.629h-1.266zm3.039-3.672h-6.437c-.305 0-.562.215-.621.508l-2.988 15.301c-.035.184.012.375.133.52a.64.64 0 0 0 .488.23h3.348a.63.63 0 0 0 .621-.512l.695-3.555h2.348c1.324 0 2.441-.145 3.316-.43.902-.293 1.73-.785 2.465-1.469.605-.555 1.105-1.18 1.484-1.852s.652-1.426.809-2.238c.391-2.004.074-3.609-.945-4.77-1.012-1.152-2.598-1.734-4.715-1.734m-4.812 9.445h2.035c1.352 0 2.355-.25 3.02-.758s1.105-1.352 1.336-2.535c.223-1.137.121-1.941-.301-2.406s-1.273-.703-2.547-.703h-2.293l-1.25 6.402m4.813-8.816c1.938 0 3.352.508 4.238 1.52s1.156 2.422.801 4.238c-.145.746-.391 1.43-.738 2.047s-.805 1.188-1.363 1.699a5.94 5.94 0 0 1-2.23 1.332c-.816.266-1.855.395-3.121.395h-2.871l-.793 4.066h-3.348l2.988-15.297h6.438"/></svg>