<svg xmlns="http://www.w3.org/2000/svg" width="80" zoomAndPan="magnify" viewBox="0 0 60 60" height="80" preserveAspectRatio="xMidYMid meet" xmlns:v="https://vecta.io/nano"><defs><clipPath id="A"><path d="M.789 14.598h58.422v30.648H.789zm0 0" clip-rule="nonzero"/></clipPath><clipPath id="B"><path d="M.844 29.922c0 8.43 13.055 15.266 29.156 15.266s29.156-6.836 29.156-15.266S46.102 14.656 30 14.656.844 21.492.844 29.922" clip-rule="nonzero"/></clipPath><clipPath id="C"><path d="M.844 29.922c0 8.43 13.055 15.266 29.156 15.266s29.156-6.836 29.156-15.266S46.102 14.656 30 14.656.844 21.492.844 29.922" clip-rule="nonzero"/></clipPath><radialGradient gradientTransform="matrix(1.002356, 0, 0, 0.997644, 18.349243, 20.024042)" gradientUnits="userSpaceOnUse" r="38.196" cx="0" id="D" cy="0" fx="0" fy="0"><stop stop-color="rgb(68.199158%, 69.799805%, 83.499146%)" offset="0"/><stop stop-color="rgb(68.199158%, 69.799805%, 83.499146%)" offset=".25"/><stop stop-color="rgb(68.164062%, 69.764709%, 83.473206%)" offset=".297"/><stop stop-color="rgb(67.956543%, 69.555664%, 83.317566%)" offset=".301"/><stop stop-color="rgb(67.608643%, 69.20929%, 83.059692%)" offset=".305"/><stop stop-color="rgb(67.260742%, 68.861389%, 82.800293%)" offset=".309"/><stop stop-color="rgb(66.914368%, 68.513489%, 82.542419%)" offset=".313"/><stop stop-color="rgb(66.566467%, 68.167114%, 82.28302%)" offset=".316"/><stop stop-color="rgb(66.220093%, 67.819214%, 82.025146%)" offset=".32"/><stop stop-color="rgb(65.872192%, 67.472839%, 81.765747%)" offset=".324"/><stop stop-color="rgb(65.525818%, 67.124939%, 81.506348%)" offset=".328"/><stop stop-color="rgb(65.177917%, 66.778564%, 81.248474%)" offset=".332"/><stop stop-color="rgb(64.831543%, 66.430664%, 80.989075%)" offset=".336"/><stop stop-color="rgb(64.483643%, 66.08429%, 80.731201%)" offset=".34"/><stop stop-color="rgb(64.135742%, 65.736389%, 80.471802%)" offset=".344"/><stop stop-color="rgb(63.789368%, 65.388489%, 80.213928%)" offset=".348"/><stop stop-color="rgb(63.441467%, 65.042114%, 79.954529%)" offset=".352"/><stop stop-color="rgb(63.095093%, 64.694214%, 79.696655%)" offset=".355"/><stop stop-color="rgb(62.747192%, 64.347839%, 79.437256%)" offset=".359"/><stop stop-color="rgb(62.400818%, 63.999939%, 79.179382%)" offset=".363"/><stop stop-color="rgb(62.052917%, 63.653564%, 78.919983%)" offset=".367"/><stop stop-color="rgb(61.706543%, 63.305664%, 78.662109%)" offset=".371"/><stop stop-color="rgb(61.358643%, 62.95929%, 78.40271%)" offset=".375"/><stop stop-color="rgb(61.010742%, 62.611389%, 78.144836%)" offset=".379"/><stop stop-color="rgb(60.664368%, 62.263489%, 77.885437%)" offset=".383"/><stop stop-color="rgb(60.316467%, 61.917114%, 77.627563%)" offset=".387"/><stop stop-color="rgb(59.970093%, 61.569214%, 77.368164%)" offset=".391"/><stop stop-color="rgb(59.622192%, 61.222839%, 77.108765%)" offset=".395"/><stop stop-color="rgb(59.275818%, 60.874939%, 76.850891%)" offset=".398"/><stop stop-color="rgb(58.927917%, 60.528564%, 76.591492%)" offset=".402"/><stop stop-color="rgb(58.581543%, 60.180664%, 76.333618%)" offset=".406"/><stop stop-color="rgb(58.233643%, 59.83429%, 76.074219%)" offset=".41"/><stop stop-color="rgb(57.885742%, 59.486389%, 75.816345%)" offset=".414"/><stop stop-color="rgb(57.539368%, 59.138489%, 75.556946%)" offset=".418"/><stop stop-color="rgb(57.191467%, 58.792114%, 75.299072%)" offset=".422"/><stop stop-color="rgb(56.845093%, 58.444214%, 75.039673%)" offset=".426"/><stop stop-color="rgb(56.497192%, 58.097839%, 74.781799%)" offset=".43"/><stop stop-color="rgb(56.150818%, 57.749939%, 74.5224%)" offset=".434"/><stop stop-color="rgb(55.802917%, 57.403564%, 74.264526%)" offset=".438"/><stop stop-color="rgb(55.456543%, 57.055664%, 74.005127%)" offset=".441"/><stop stop-color="rgb(55.108643%, 56.70929%, 73.747253%)" offset=".445"/><stop stop-color="rgb(54.760742%, 56.361389%, 73.487854%)" offset=".449"/><stop stop-color="rgb(54.414368%, 56.013489%, 73.22998%)" offset=".453"/><stop stop-color="rgb(54.066467%, 55.667114%, 72.970581%)" offset=".457"/><stop stop-color="rgb(53.720093%, 55.319214%, 72.711182%)" offset=".461"/><stop stop-color="rgb(53.372192%, 54.972839%, 72.453308%)" offset=".465"/><stop stop-color="rgb(53.025818%, 54.624939%, 72.193909%)" offset=".469"/><stop stop-color="rgb(52.677917%, 54.278564%, 71.936035%)" offset=".473"/><stop stop-color="rgb(52.331543%, 53.930664%, 71.676636%)" offset=".477"/><stop stop-color="rgb(51.983643%, 53.58429%, 71.418762%)" offset=".48"/><stop stop-color="rgb(51.635742%, 53.236389%, 71.159363%)" offset=".484"/><stop stop-color="rgb(51.289368%, 52.888489%, 70.901489%)" offset=".488"/><stop stop-color="rgb(50.941467%, 52.542114%, 70.64209%)" offset=".492"/><stop stop-color="rgb(50.595093%, 52.194214%, 70.384216%)" offset=".496"/><stop stop-color="rgb(50.247192%, 51.847839%, 70.124817%)" offset=".5"/><stop stop-color="rgb(49.900818%, 51.499939%, 69.866943%)" offset=".504"/><stop stop-color="rgb(49.552917%, 51.153564%, 69.607544%)" offset=".508"/><stop stop-color="rgb(49.206543%, 50.805664%, 69.34967%)" offset=".512"/><stop stop-color="rgb(48.858643%, 50.45929%, 69.090271%)" offset=".516"/><stop stop-color="rgb(48.510742%, 50.111389%, 68.832397%)" offset=".52"/><stop stop-color="rgb(48.164368%, 49.763489%, 68.572998%)" offset=".523"/><stop stop-color="rgb(47.816467%, 49.417114%, 68.313599%)" offset=".527"/><stop stop-color="rgb(47.470093%, 49.069214%, 68.055725%)" offset=".531"/><stop stop-color="rgb(47.122192%, 48.722839%, 67.796326%)" offset=".535"/><stop stop-color="rgb(46.775818%, 48.374939%, 67.538452%)" offset=".539"/><stop stop-color="rgb(46.427917%, 48.028564%, 67.279053%)" offset=".543"/><stop stop-color="rgb(46.081543%, 47.680664%, 67.021179%)" offset=".547"/><stop stop-color="rgb(45.733643%, 47.33429%, 66.76178%)" offset=".551"/><stop stop-color="rgb(45.385742%, 46.986389%, 66.503906%)" offset=".555"/><stop stop-color="rgb(45.039368%, 46.638489%, 66.244507%)" offset=".559"/><stop stop-color="rgb(44.691467%, 46.292114%, 65.986633%)" offset=".563"/><stop stop-color="rgb(44.345093%, 45.944214%, 65.727234%)" offset=".566"/><stop stop-color="rgb(43.997192%, 45.597839%, 65.46936%)" offset=".57"/><stop stop-color="rgb(43.650818%, 45.249939%, 65.209961%)" offset=".574"/><stop stop-color="rgb(43.302917%, 44.903564%, 64.952087%)" offset=".578"/><stop stop-color="rgb(42.956543%, 44.555664%, 64.692688%)" offset=".582"/><stop stop-color="rgb(42.608643%, 44.20929%, 64.434814%)" offset=".586"/><stop stop-color="rgb(42.260742%, 43.861389%, 64.175415%)" offset=".59"/><stop stop-color="rgb(41.914368%, 43.513489%, 63.916016%)" offset=".594"/><stop stop-color="rgb(41.566467%, 43.167114%, 63.658142%)" offset=".598"/><stop stop-color="rgb(41.220093%, 42.819214%, 63.398743%)" offset=".602"/><stop stop-color="rgb(40.872192%, 42.472839%, 63.140869%)" offset=".605"/><stop stop-color="rgb(40.525818%, 42.124939%, 62.88147%)" offset=".609"/><stop stop-color="rgb(40.177917%, 41.778564%, 62.623596%)" offset=".613"/><stop stop-color="rgb(39.831543%, 41.430664%, 62.364197%)" offset=".617"/><stop stop-color="rgb(39.483643%, 41.08429%, 62.106323%)" offset=".621"/><stop stop-color="rgb(39.135742%, 40.736389%, 61.846924%)" offset=".625"/><stop stop-color="rgb(38.789368%, 40.388489%, 61.58905%)" offset=".629"/><stop stop-color="rgb(38.441467%, 40.042114%, 61.329651%)" offset=".633"/><stop stop-color="rgb(38.095093%, 39.694214%, 61.071777%)" offset=".637"/><stop stop-color="rgb(37.747192%, 39.347839%, 60.812378%)" offset=".641"/><stop stop-color="rgb(37.400818%, 38.999939%, 60.554504%)" offset=".645"/><stop stop-color="rgb(37.052917%, 38.653564%, 60.295105%)" offset=".648"/><stop stop-color="rgb(36.706543%, 38.305664%, 60.037231%)" offset=".652"/><stop stop-color="rgb(36.358643%, 37.95929%, 59.777832%)" offset=".656"/><stop stop-color="rgb(36.010742%, 37.611389%, 59.518433%)" offset=".66"/><stop stop-color="rgb(35.664368%, 37.263489%, 59.260559%)" offset=".664"/><stop stop-color="rgb(35.316467%, 36.917114%, 59.00116%)" offset=".668"/><stop stop-color="rgb(34.970093%, 36.569214%, 58.743286%)" offset=".672"/><stop stop-color="rgb(34.622192%, 36.222839%, 58.483887%)" offset=".676"/><stop stop-color="rgb(34.275818%, 35.874939%, 58.226013%)" offset=".68"/><stop stop-color="rgb(33.927917%, 35.528564%, 57.966614%)" offset=".684"/><stop stop-color="rgb(33.581543%, 35.180664%, 57.70874%)" offset=".688"/><stop stop-color="rgb(33.233643%, 34.83429%, 57.449341%)" offset=".691"/><stop stop-color="rgb(32.885742%, 34.486389%, 57.191467%)" offset=".695"/><stop stop-color="rgb(32.539368%, 34.138489%, 56.932068%)" offset=".699"/><stop stop-color="rgb(32.191467%, 33.792114%, 56.674194%)" offset=".703"/><stop stop-color="rgb(31.845093%, 33.444214%, 56.414795%)" offset=".707"/><stop stop-color="rgb(31.497192%, 33.097839%, 56.156921%)" offset=".711"/><stop stop-color="rgb(31.150818%, 32.749939%, 55.897522%)" offset=".715"/><stop stop-color="rgb(30.802917%, 32.403564%, 55.639648%)" offset=".719"/><stop stop-color="rgb(30.456543%, 32.055664%, 55.380249%)" offset=".723"/><stop stop-color="rgb(30.108643%, 31.70929%, 55.122375%)" offset=".727"/><stop stop-color="rgb(29.760742%, 31.361389%, 54.862976%)" offset=".73"/><stop stop-color="rgb(29.414368%, 31.013489%, 54.603577%)" offset=".734"/><stop stop-color="rgb(29.066467%, 30.667114%, 54.345703%)" offset=".738"/><stop stop-color="rgb(28.720093%, 30.319214%, 54.086304%)" offset=".742"/><stop stop-color="rgb(28.372192%, 29.972839%, 53.82843%)" offset=".746"/><stop stop-color="rgb(28.199768%, 29.798889%, 53.69873%)" offset="1"/></radialGradient></defs><g clip-path="url(#A)"><g clip-path="url(#B)"><g clip-path="url(#C)"><path fill="url(#D)" d="M.844 14.656v30.531h58.313V14.656zm0 0"/></g></g></g><path fill="#777bb3" d="M30 44.055c15.473 0 28.016-6.328 28.016-14.133S45.473 15.789 30 15.789 1.984 22.117 1.984 29.922 14.527 44.055 30 44.055"/><path d="M16.684 31.676c1.273 0 2.223-.234 2.824-.695.594-.457 1.004-1.246 1.219-2.348.203-1.027.125-1.746-.227-2.133-.359-.398-1.137-.598-2.309-.598H16.16l-1.129 5.773zm-6.648 7.109c-.094 0-.184-.043-.246-.113a.33.33 0 0 1-.066-.262l2.988-15.297c.027-.148.16-.254.313-.254h6.437c2.023 0 3.527.547 4.477 1.625s1.246 2.598.871 4.504a7.03 7.03 0 0 1-.773 2.141 7.05 7.05 0 0 1-1.426 1.777 6.19 6.19 0 0 1-2.344 1.398c-.844.273-1.926.414-3.223.414h-2.605l-.746 3.813a.31.31 0 0 1-.309.254zm0 0"/><path fill="#fff" d="M16.418 26.215h1.773c1.418 0 1.906.313 2.074.496.277.305.332.949.152 1.863-.199 1.023-.57 1.75-1.102 2.156-.547.418-1.43.629-2.633.629h-1.27zm3.043-3.672h-6.437a.63.63 0 0 0-.621.508L9.414 38.352c-.035.184.012.375.133.52s.297.23.488.23h3.348c.301 0 .563-.215.621-.512l.695-3.555h2.344c1.328 0 2.445-.145 3.32-.43.902-.293 1.73-.785 2.465-1.469.605-.555 1.105-1.18 1.484-1.852s.648-1.426.809-2.238c.391-2.004.074-3.609-.945-4.77-1.012-1.152-2.598-1.734-4.715-1.734m-4.812 9.445h2.035c1.352 0 2.355-.25 3.016-.758s1.109-1.352 1.34-2.535c.223-1.137.121-1.941-.305-2.406s-1.27-.703-2.543-.703h-2.293l-1.25 6.402m4.812-8.816c1.938 0 3.348.508 4.238 1.52s1.156 2.422.801 4.238a6.77 6.77 0 0 1-.742 2.047c-.348.621-.801 1.188-1.359 1.699-.672.621-1.414 1.066-2.23 1.332s-1.859.395-3.125.395h-2.867l-.793 4.066h-3.348l2.988-15.297h6.437"/><path d="M32.488 34.719c-.098 0-.184-.043-.246-.113a.33.33 0 0 1-.066-.262l1.32-6.77c.129-.645.098-1.105-.086-1.301-.109-.117-.445-.32-1.434-.32h-2.395l-1.66 8.512c-.031.148-.16.254-.312.254h-3.32c-.098 0-.184-.043-.246-.113a.33.33 0 0 1-.066-.262l2.988-15.297c.027-.148.16-.258.309-.258h3.324a.31.31 0 0 1 .242.117c.063.07.086.168.066.258l-.719 3.695h2.574c1.961 0 3.293.344 4.066 1.051.793.723 1.039 1.879.734 3.434l-1.391 7.121c-.027.148-.16.254-.309.254zm0 0"/><path fill="#fff" d="M30.598 18.477h-3.324c-.301 0-.562.215-.621.508l-2.984 15.301c-.039.184.012.375.133.52a.63.63 0 0 0 .488.23h3.32a.63.63 0 0 0 .621-.512l1.613-8.254h2.133c.988 0 1.195.211 1.203.219.059.063.137.359.008 1.027l-1.32 6.77c-.039.184.012.375.133.52a.63.63 0 0 0 .488.23h3.375c.301 0 .563-.215.621-.512l1.387-7.117c.328-1.672.047-2.926-.828-3.727-.836-.766-2.234-1.137-4.281-1.137H30.57l.648-3.316c.035-.184-.012-.375-.133-.52a.63.63 0 0 0-.488-.23m0 .629l-.793 4.066h2.957c1.863 0 3.148.324 3.855.969s.918 1.695.633 3.145l-1.387 7.117h-3.375l1.32-6.766c.148-.773.094-1.297-.168-1.578s-.816-.418-1.664-.418H29.32l-1.711 8.762h-3.32l2.984-15.297h3.324"/><path d="M42.816 31.676c1.273 0 2.223-.234 2.824-.695.594-.457 1.004-1.246 1.223-2.348.199-1.027.121-1.746-.23-2.133-.359-.398-1.133-.598-2.309-.598h-2.031l-1.129 5.773zm-6.648 7.109c-.094 0-.184-.043-.246-.113a.33.33 0 0 1-.066-.262l2.988-15.297c.031-.148.16-.254.313-.254h6.438c2.023 0 3.531.547 4.477 1.625.953 1.082 1.246 2.598.875 4.504a7.14 7.14 0 0 1-.777 2.141 7.12 7.12 0 0 1-1.422 1.777c-.699.652-1.488 1.121-2.348 1.398-.844.273-1.926.414-3.219.414H40.57l-.742 3.813c-.031.148-.16.254-.312.254zm0 0"/><path fill="#fff" d="M42.555 26.215h1.77c1.418 0 1.91.313 2.074.496.277.305.332.949.152 1.863-.199 1.023-.57 1.75-1.102 2.156-.547.418-1.43.629-2.633.629h-1.266zm3.039-3.672h-6.437c-.305 0-.562.215-.621.508l-2.988 15.301c-.035.184.012.375.133.52a.64.64 0 0 0 .488.23h3.348a.63.63 0 0 0 .621-.512l.695-3.555h2.348c1.324 0 2.441-.145 3.316-.43.902-.293 1.73-.785 2.465-1.469.605-.555 1.105-1.18 1.484-1.852s.652-1.426.809-2.238c.391-2.004.074-3.609-.945-4.77-1.012-1.152-2.598-1.734-4.715-1.734m-4.812 9.445h2.035c1.352 0 2.355-.25 3.02-.758s1.105-1.352 1.336-2.535c.223-1.137.121-1.941-.301-2.406s-1.273-.703-2.547-.703h-2.293l-1.25 6.402m4.813-8.816c1.938 0 3.352.508 4.238 1.52s1.156 2.422.801 4.238c-.145.746-.391 1.43-.738 2.047s-.805 1.188-1.363 1.699a5.94 5.94 0 0 1-2.23 1.332c-.816.266-1.855.395-3.121.395h-2.871l-.793 4.066h-3.348l2.988-15.297h6.438"/></svg>