<svg xmlns="http://www.w3.org/2000/svg" xmlns:xlink="http://www.w3.org/1999/xlink" width="80" zoomAndPan="magnify" viewBox="0 0 60 60" height="80" preserveAspectRatio="xMidYMid meet" version="1.0"><defs><g/></defs><path fill="#ff6c37" d="M 56.777344 30.429688 C 58.667969 15.636719 48.222656 2.109375 33.457031 0.222656 C 18.6875 -1.667969 5.109375 8.777344 3.222656 23.542969 C 1.332031 38.3125 11.777344 51.863281 26.542969 53.777344 C 41.339844 55.667969 54.863281 45.222656 56.777344 30.429688 Z M 56.777344 30.429688 " fill-opacity="1" fill-rule="nonzero"/><path fill="#ffffff" d="M 39.746094 17.335938 L 28.351562 28.726562 L 25.140625 25.515625 C 36.34375 14.3125 37.449219 15.285156 39.746094 17.335938 Z M 39.746094 17.335938 " fill-opacity="1" fill-rule="nonzero"/><path fill="#ff6c37" d="M 28.351562 28.996094 C 28.273438 28.996094 28.21875 28.96875 28.164062 28.917969 L 24.925781 25.703125 C 24.816406 25.597656 24.816406 25.433594 24.925781 25.328125 C 36.316406 13.933594 37.503906 15.015625 39.90625 17.171875 C 39.960938 17.226562 39.988281 17.28125 39.988281 17.363281 C 39.988281 17.445312 39.960938 17.496094 39.90625 17.550781 L 28.515625 28.917969 C 28.488281 28.96875 28.40625 28.996094 28.351562 28.996094 Z M 25.519531 25.515625 L 28.351562 28.351562 L 39.339844 17.363281 C 37.34375 15.582031 35.992188 15.042969 25.519531 25.515625 Z M 25.519531 25.515625 " fill-opacity="1" fill-rule="nonzero"/><path fill="#ffffff" d="M 31.621094 31.992188 L 28.515625 28.890625 L 39.90625 17.496094 C 42.957031 20.574219 38.394531 25.570312 31.621094 31.992188 Z M 31.621094 31.992188 " fill-opacity="1" fill-rule="nonzero"/><path fill="#ff6c37" d="M 31.621094 32.265625 C 31.539062 32.265625 31.484375 32.238281 31.429688 32.183594 L 28.328125 29.078125 C 28.273438 29.023438 28.273438 28.96875 28.273438 28.890625 C 28.273438 28.808594 28.300781 28.753906 28.351562 28.699219 L 39.746094 17.308594 C 39.851562 17.199219 40.015625 17.199219 40.125 17.308594 C 40.824219 17.957031 41.203125 18.875 41.175781 19.820312 C 41.121094 22.816406 37.71875 26.621094 31.835938 32.183594 C 31.753906 32.238281 31.671875 32.265625 31.621094 32.265625 Z M 28.894531 28.890625 C 30.621094 30.644531 31.351562 31.347656 31.621094 31.617188 C 36.15625 27.296875 40.554688 22.871094 40.582031 19.820312 C 40.609375 19.117188 40.339844 18.414062 39.878906 17.875 Z M 28.894531 28.890625 " fill-opacity="1" fill-rule="nonzero"/><path fill="#ffffff" d="M 25.195312 25.597656 L 27.488281 27.890625 C 27.542969 27.945312 27.542969 28 27.488281 28.054688 C 27.460938 28.078125 27.460938 28.078125 27.433594 28.078125 L 22.683594 29.105469 C 22.441406 29.132812 22.226562 28.96875 22.171875 28.726562 C 22.144531 28.59375 22.199219 28.457031 22.28125 28.375 L 25.03125 25.625 C 25.085938 25.570312 25.167969 25.542969 25.195312 25.597656 Z M 25.195312 25.597656 " fill-opacity="1" fill-rule="nonzero"/><path fill="#ff6c37" d="M 22.601562 29.375 C 22.199219 29.375 21.902344 29.050781 21.902344 28.648438 C 21.902344 28.457031 21.980469 28.269531 22.117188 28.132812 L 24.871094 25.378906 C 25.03125 25.246094 25.25 25.246094 25.410156 25.378906 L 27.707031 27.675781 C 27.867188 27.808594 27.867188 28.054688 27.707031 28.214844 C 27.652344 28.269531 27.597656 28.296875 27.515625 28.324219 L 22.765625 29.347656 C 22.710938 29.347656 22.65625 29.375 22.601562 29.375 Z M 25.113281 25.894531 L 22.46875 28.539062 C 22.414062 28.59375 22.386719 28.671875 22.441406 28.753906 C 22.46875 28.835938 22.550781 28.863281 22.628906 28.835938 L 27.085938 27.863281 Z M 25.113281 25.894531 " fill-opacity="1" fill-rule="nonzero"/><path fill="#ffffff" d="M 45.765625 11.019531 C 44.039062 9.34375 41.257812 9.398438 39.582031 11.152344 C 37.910156 12.910156 37.964844 15.660156 39.71875 17.335938 C 41.148438 18.710938 43.308594 18.957031 45.007812 17.929688 L 41.933594 14.851562 Z M 45.765625 11.019531 " fill-opacity="1" fill-rule="nonzero"/><path fill="#ff6c37" d="M 42.742188 18.820312 C 40.175781 18.820312 38.097656 16.742188 38.097656 14.175781 C 38.097656 11.613281 40.175781 9.535156 42.742188 9.535156 C 43.929688 9.535156 45.089844 9.992188 45.953125 10.828125 C 46.007812 10.882812 46.035156 10.9375 46.035156 11.019531 C 46.035156 11.101562 46.007812 11.152344 45.953125 11.207031 L 42.308594 14.851562 L 45.171875 17.714844 C 45.277344 17.820312 45.277344 17.984375 45.171875 18.089844 C 45.144531 18.117188 45.144531 18.117188 45.117188 18.144531 C 44.414062 18.578125 43.578125 18.820312 42.742188 18.820312 Z M 42.742188 10.101562 C 40.472656 10.101562 38.636719 11.9375 38.664062 14.203125 C 38.664062 16.472656 40.5 18.308594 42.769531 18.28125 C 43.390625 18.28125 44.011719 18.144531 44.578125 17.847656 L 41.742188 15.042969 C 41.6875 14.988281 41.660156 14.933594 41.660156 14.851562 C 41.660156 14.769531 41.6875 14.71875 41.742188 14.664062 L 45.359375 11.046875 C 44.632812 10.425781 43.714844 10.101562 42.742188 10.101562 Z M 42.742188 10.101562 " fill-opacity="1" fill-rule="nonzero"/><path fill="#ffffff" d="M 45.847656 11.101562 L 45.792969 11.046875 L 41.933594 14.851562 L 44.980469 17.902344 C 45.277344 17.714844 45.574219 17.496094 45.820312 17.253906 C 47.546875 15.554688 47.546875 12.800781 45.847656 11.101562 Z M 45.847656 11.101562 " fill-opacity="1" fill-rule="nonzero"/><path fill="#ff6c37" d="M 45.007812 18.199219 C 44.929688 18.199219 44.875 18.171875 44.820312 18.117188 L 41.742188 15.042969 C 41.6875 14.988281 41.660156 14.933594 41.660156 14.851562 C 41.660156 14.769531 41.6875 14.71875 41.742188 14.664062 L 45.574219 10.828125 C 45.683594 10.722656 45.847656 10.722656 45.953125 10.828125 L 46.035156 10.882812 C 47.84375 12.691406 47.84375 15.609375 46.0625 17.445312 C 45.792969 17.714844 45.496094 17.957031 45.171875 18.144531 C 45.089844 18.171875 45.035156 18.199219 45.007812 18.199219 Z M 42.308594 14.851562 L 45.035156 17.578125 C 45.253906 17.445312 45.46875 17.253906 45.628906 17.09375 C 47.167969 15.554688 47.25 13.042969 45.765625 11.421875 Z M 42.308594 14.851562 " fill-opacity="1" fill-rule="nonzero"/><path fill="#ffffff" d="M 40.203125 17.820312 C 39.554688 17.171875 38.503906 17.171875 37.855469 17.820312 L 27.679688 28 L 29.378906 29.699219 L 40.148438 20.25 C 40.851562 19.65625 40.90625 18.605469 40.3125 17.902344 C 40.257812 17.875 40.230469 17.847656 40.203125 17.820312 Z M 40.203125 17.820312 " fill-opacity="1" fill-rule="nonzero"/><path fill="#ff6c37" d="M 29.351562 29.96875 C 29.269531 29.96875 29.21875 29.941406 29.164062 29.886719 L 27.460938 28.1875 C 27.355469 28.078125 27.355469 27.917969 27.460938 27.808594 L 37.640625 17.632812 C 38.394531 16.875 39.609375 16.875 40.367188 17.632812 C 41.121094 18.386719 41.121094 19.601562 40.367188 20.359375 C 40.339844 20.386719 40.3125 20.414062 40.285156 20.441406 L 29.515625 29.886719 C 29.488281 29.941406 29.433594 29.96875 29.351562 29.96875 Z M 28.054688 28 L 29.378906 29.320312 L 39.960938 20.035156 C 40.554688 19.550781 40.609375 18.660156 40.125 18.066406 C 39.636719 17.472656 38.746094 17.417969 38.152344 17.902344 C 38.125 17.929688 38.097656 17.957031 38.042969 17.984375 Z M 28.054688 28 " fill-opacity="1" fill-rule="nonzero"/><path fill="#ffffff" d="M 19.875 39.578125 C 19.769531 39.632812 19.714844 39.742188 19.742188 39.851562 L 20.199219 41.792969 C 20.308594 42.0625 20.148438 42.386719 19.851562 42.46875 C 19.632812 42.550781 19.390625 42.46875 19.257812 42.304688 L 16.285156 39.363281 L 25.976562 29.671875 L 29.324219 29.726562 L 31.59375 31.992188 C 31.054688 32.453125 27.785156 35.613281 19.875 39.578125 Z M 19.875 39.578125 " fill-opacity="1" fill-rule="nonzero"/><path fill="#ff6c37" d="M 19.660156 42.738281 C 19.445312 42.738281 19.230469 42.65625 19.09375 42.496094 L 16.152344 39.554688 C 16.097656 39.5 16.070312 39.445312 16.070312 39.363281 C 16.070312 39.28125 16.097656 39.230469 16.152344 39.175781 L 25.84375 29.484375 C 25.898438 29.429688 25.976562 29.402344 26.03125 29.402344 L 29.378906 29.457031 C 29.460938 29.457031 29.515625 29.484375 29.566406 29.539062 L 31.835938 31.804688 C 31.890625 31.859375 31.917969 31.941406 31.917969 32.019531 C 31.917969 32.101562 31.890625 32.15625 31.808594 32.210938 L 31.621094 32.371094 C 28.757812 34.882812 24.871094 37.394531 20.039062 39.796875 L 20.496094 41.710938 C 20.578125 42.0625 20.417969 42.441406 20.09375 42.628906 C 19.929688 42.710938 19.796875 42.738281 19.660156 42.738281 Z M 16.691406 39.363281 L 19.472656 42.117188 C 19.554688 42.253906 19.714844 42.304688 19.851562 42.226562 C 19.984375 42.144531 20.039062 41.980469 19.957031 41.847656 L 19.5 39.902344 C 19.445312 39.660156 19.554688 39.445312 19.769531 39.335938 C 24.546875 36.933594 28.40625 34.449219 31.242188 31.992188 L 29.242188 29.996094 L 26.140625 29.941406 Z M 16.691406 39.363281 " fill-opacity="1" fill-rule="nonzero"/><path fill="#ffffff" d="M 13.992188 41.683594 L 16.3125 39.363281 L 19.769531 42.820312 L 14.261719 42.441406 C 14.019531 42.414062 13.855469 42.199219 13.882812 41.957031 C 13.882812 41.847656 13.910156 41.738281 13.992188 41.683594 Z M 13.992188 41.683594 " fill-opacity="1" fill-rule="nonzero"/><path fill="#ff6c37" d="M 19.769531 43.0625 L 14.234375 42.683594 C 13.828125 42.65625 13.558594 42.304688 13.585938 41.902344 C 13.613281 41.738281 13.667969 41.578125 13.804688 41.46875 L 16.125 39.148438 C 16.234375 39.039062 16.394531 39.039062 16.503906 39.148438 L 19.957031 42.601562 C 20.039062 42.683594 20.066406 42.792969 20.011719 42.898438 C 19.957031 43.007812 19.875 43.0625 19.769531 43.0625 Z M 16.3125 39.742188 L 14.179688 41.875 C 14.101562 41.929688 14.101562 42.0625 14.179688 42.117188 C 14.207031 42.144531 14.234375 42.171875 14.289062 42.171875 L 19.066406 42.496094 Z M 16.3125 39.742188 " fill-opacity="1" fill-rule="nonzero"/><path fill="#ff6c37" d="M 25.03125 30.914062 C 24.871094 30.914062 24.761719 30.78125 24.761719 30.644531 C 24.761719 30.5625 24.789062 30.507812 24.84375 30.457031 L 27.460938 27.835938 C 27.570312 27.730469 27.730469 27.730469 27.839844 27.835938 L 29.542969 29.539062 C 29.621094 29.617188 29.648438 29.699219 29.621094 29.808594 C 29.59375 29.886719 29.515625 29.96875 29.40625 29.996094 L 25.085938 30.914062 C 25.058594 30.914062 25.03125 30.914062 25.03125 30.914062 Z M 27.652344 28.402344 L 25.871094 30.183594 L 28.785156 29.566406 Z M 27.652344 28.402344 " fill-opacity="1" fill-rule="nonzero"/><path fill="#ffffff" d="M 29.324219 29.726562 L 26.355469 30.375 C 26.140625 30.429688 25.921875 30.292969 25.871094 30.078125 C 25.84375 29.941406 25.871094 29.808594 25.976562 29.699219 L 27.625 28.054688 Z M 29.324219 29.726562 " fill-opacity="1" fill-rule="nonzero"/><path fill="#ff6c37" d="M 26.300781 30.644531 C 25.921875 30.644531 25.625 30.347656 25.625 29.96875 C 25.625 29.78125 25.707031 29.617188 25.816406 29.484375 L 27.460938 27.835938 C 27.570312 27.730469 27.730469 27.730469 27.839844 27.835938 L 29.542969 29.539062 C 29.621094 29.617188 29.648438 29.699219 29.621094 29.808594 C 29.59375 29.886719 29.515625 29.96875 29.40625 29.996094 L 26.4375 30.644531 C 26.382812 30.644531 26.328125 30.644531 26.300781 30.644531 Z M 27.652344 28.402344 L 26.195312 29.863281 C 26.140625 29.914062 26.140625 29.96875 26.167969 30.023438 C 26.195312 30.078125 26.246094 30.105469 26.328125 30.105469 L 28.8125 29.566406 Z M 27.652344 28.402344 " fill-opacity="1" fill-rule="nonzero"/><path fill="#ff6c37" d="M 45.875 13.691406 C 45.820312 13.53125 45.628906 13.449219 45.46875 13.503906 C 45.304688 13.554688 45.226562 13.746094 45.277344 13.90625 C 45.277344 13.933594 45.304688 13.960938 45.304688 13.988281 C 45.46875 14.3125 45.414062 14.71875 45.199219 15.015625 C 45.089844 15.148438 45.117188 15.339844 45.226562 15.445312 C 45.359375 15.554688 45.550781 15.527344 45.65625 15.390625 C 46.0625 14.878906 46.144531 14.230469 45.875 13.691406 Z M 45.875 13.691406 " fill-opacity="1" fill-rule="nonzero"/><g fill="#ff6c37" fill-opacity="1"><g transform="translate(7.592508, 51.564421)"><g><path d="M 1.796875 1.3125 L 0.375 0.28125 L 2.84375 -3.09375 L 5.140625 -1.421875 C 5.703125 -1.015625 6.117188 -0.644531 6.390625 -0.3125 C 6.660156 0.0078125 6.804688 0.316406 6.828125 0.609375 C 6.859375 0.898438 6.769531 1.1875 6.5625 1.46875 C 6.363281 1.75 6.117188 1.921875 5.828125 1.984375 C 5.546875 2.046875 5.207031 1.992188 4.8125 1.828125 C 4.414062 1.671875 3.9375 1.390625 3.375 0.984375 L 2.5 0.34375 Z M 3.109375 -0.484375 L 3.90625 0.09375 C 4.132812 0.257812 4.320312 0.378906 4.46875 0.453125 C 4.613281 0.523438 4.726562 0.566406 4.8125 0.578125 C 4.90625 0.597656 4.976562 0.59375 5.03125 0.5625 C 5.082031 0.53125 5.125 0.488281 5.15625 0.4375 C 5.207031 0.375 5.234375 0.316406 5.234375 0.265625 C 5.242188 0.210938 5.226562 0.144531 5.1875 0.0625 C 5.15625 -0.0078125 5.082031 -0.101562 4.96875 -0.21875 C 4.851562 -0.332031 4.679688 -0.472656 4.453125 -0.640625 L 3.65625 -1.21875 Z M 3.109375 -0.484375 "/></g></g></g><g fill="#ff6c37" fill-opacity="1"><g transform="translate(13.021898, 55.487222)"><g><path d="M 2.8125 1.390625 C 1.882812 0.960938 1.289062 0.453125 1.03125 -0.140625 C 0.800781 -0.648438 0.820312 -1.207031 1.09375 -1.8125 C 1.363281 -2.394531 1.769531 -2.769531 2.3125 -2.9375 C 2.9375 -3.113281 3.710938 -2.988281 4.640625 -2.5625 C 5.585938 -2.125 6.191406 -1.609375 6.453125 -1.015625 C 6.691406 -0.492188 6.675781 0.0546875 6.40625 0.640625 C 6.132812 1.242188 5.722656 1.625 5.171875 1.78125 C 4.546875 1.957031 3.757812 1.828125 2.8125 1.390625 Z M 3.296875 0.375 C 3.691406 0.5625 4.023438 0.585938 4.296875 0.453125 C 4.523438 0.335938 4.695312 0.15625 4.8125 -0.09375 C 4.914062 -0.320312 4.9375 -0.5625 4.875 -0.8125 C 4.800781 -1.113281 4.566406 -1.359375 4.171875 -1.546875 C 3.796875 -1.710938 3.46875 -1.726562 3.1875 -1.59375 C 2.945312 -1.476562 2.773438 -1.304688 2.671875 -1.078125 C 2.554688 -0.828125 2.535156 -0.578125 2.609375 -0.328125 C 2.691406 -0.0234375 2.921875 0.207031 3.296875 0.375 Z M 3.296875 0.375 "/></g></g></g><g fill="#ff6c37" fill-opacity="1"><g transform="translate(19.031753, 58.18645)"><g><path d="M 2.671875 0.765625 C 2.117188 0.628906 1.6875 0.457031 1.375 0.25 C 1.0625 0.0507812 0.84375 -0.171875 0.71875 -0.421875 C 0.59375 -0.671875 0.539062 -0.9375 0.5625 -1.21875 L 2.375 -0.765625 C 2.457031 -0.546875 2.644531 -0.398438 2.9375 -0.328125 C 3.226562 -0.253906 3.460938 -0.296875 3.640625 -0.453125 C 3.648438 -0.460938 3.65625 -0.472656 3.65625 -0.484375 C 3.675781 -0.535156 3.617188 -0.59375 3.484375 -0.65625 C 3.359375 -0.71875 3.164062 -0.789062 2.90625 -0.875 C 2.582031 -0.96875 2.238281 -1.09375 1.875 -1.25 C 1.082031 -1.582031 0.753906 -2.019531 0.890625 -2.5625 C 0.898438 -2.601562 0.910156 -2.648438 0.921875 -2.703125 C 1.046875 -2.960938 1.222656 -3.171875 1.453125 -3.328125 C 1.679688 -3.484375 1.976562 -3.578125 2.34375 -3.609375 C 2.71875 -3.648438 3.179688 -3.601562 3.734375 -3.46875 C 4.273438 -3.332031 4.695312 -3.160156 5 -2.953125 C 5.3125 -2.742188 5.523438 -2.515625 5.640625 -2.265625 C 5.765625 -2.023438 5.820312 -1.765625 5.8125 -1.484375 L 4 -1.9375 C 3.925781 -2.15625 3.742188 -2.300781 3.453125 -2.375 C 3.160156 -2.445312 2.921875 -2.40625 2.734375 -2.25 C 2.722656 -2.238281 2.71875 -2.222656 2.71875 -2.203125 C 2.707031 -2.160156 2.757812 -2.113281 2.875 -2.0625 C 3 -2.007812 3.1875 -1.941406 3.4375 -1.859375 C 3.6875 -1.785156 3.945312 -1.691406 4.21875 -1.578125 C 4.488281 -1.472656 4.738281 -1.347656 4.96875 -1.203125 C 5.195312 -1.066406 5.359375 -0.894531 5.453125 -0.6875 C 5.535156 -0.539062 5.550781 -0.363281 5.5 -0.15625 C 5.488281 -0.101562 5.472656 -0.0507812 5.453125 0 C 5.316406 0.257812 5.132812 0.46875 4.90625 0.625 C 4.6875 0.789062 4.394531 0.890625 4.03125 0.921875 C 3.664062 0.953125 3.210938 0.898438 2.671875 0.765625 Z M 2.671875 0.765625 "/></g></g></g><g fill="#ff6c37" fill-opacity="1"><g transform="translate(24.63941, 59.566336)"><g><path d="M 3.546875 0.265625 L 1.8125 0.140625 L 2.046875 -2.984375 L 0.40625 -3.109375 L 0.484375 -4.15625 L 5.5 -3.78125 L 5.421875 -2.734375 L 3.78125 -2.859375 Z M 3.546875 0.265625 "/></g></g></g><g fill="#ff6c37" fill-opacity="1"><g transform="translate(30.344866, 60.153945)"><g><path d="M 8.328125 -1.234375 L 6.578125 -0.984375 L 6.1875 -3.625 L 5.03125 -0.75 L 3.734375 -0.5625 L 1.796875 -2.96875 L 2.1875 -0.328125 L 0.46875 -0.0625 L -0.140625 -4.203125 L 1.90625 -4.515625 L 4.21875 -1.828125 L 5.65625 -5.078125 L 7.71875 -5.375 Z M 8.328125 -1.234375 "/></g></g></g><g fill="#ff6c37" fill-opacity="1"><g transform="translate(39.465441, 58.636545)"><g><path d="M 6.484375 -2.71875 L 4.84375 -2.03125 L 4.21875 -2.515625 L 1.78125 -1.5 L 1.6875 -0.703125 L 0.046875 -0.015625 L 0.890625 -4.890625 L 2.390625 -5.53125 Z M 3.265625 -3.234375 L 2.09375 -4.109375 L 1.921875 -2.671875 Z M 3.265625 -3.234375 "/></g></g></g><g fill="#ff6c37" fill-opacity="1"><g transform="translate(46.27347, 55.745547)"><g><path d="M 5.4375 -3.875 L 3.734375 -2.65625 L 0.171875 -3.578125 L 1.8125 -1.28125 L 0.375 -0.265625 L -2.0625 -3.671875 L -0.359375 -4.890625 L 3.234375 -3.96875 L 1.578125 -6.265625 L 3 -7.28125 Z M 5.4375 -3.875 "/></g></g></g></svg>