<svg xmlns="http://www.w3.org/2000/svg" width="80" zoomAndPan="magnify" viewBox="0 0 60 60" height="80" preserveAspectRatio="xMidYMid meet" xmlns:v="https://vecta.io/nano"><style><![CDATA[.B{fill:#ff6c37}.C{fill:#fff}]]></style><defs><clipPath id="A"><path d="M5.398 0h49.5v49.5h-49.5zm0 0" clip-rule="nonzero"/></clipPath></defs><g clip-path="url(#A)" class="B"><path d="M54.699 27.895C56.43 14.332 46.852 1.934 33.316.203S7.336 8.047 5.602 21.582s7.844 25.957 21.383 27.715c13.559 1.734 25.957-7.844 27.715-21.402zm0 0"/></g><path d="M39.082 15.891L28.641 26.332l-2.945-2.941c10.27-10.27 11.285-9.379 13.387-7.5zm0 0" class="C"/><path d="M28.641 26.582c-.074 0-.125-.027-.172-.074l-2.973-2.945c-.098-.098-.098-.246 0-.348 10.445-10.441 11.531-9.453 13.734-7.473.051.051.074.098.074.172s-.023.125-.074.176L28.789 26.508c-.023.047-.098.074-.148.074zm-2.598-3.191l2.598 2.598 10.07-10.074c-1.832-1.633-3.066-2.125-12.668 7.477zm0 0" class="B"/><path d="M31.633 29.328l-2.844-2.848L39.23 16.039c2.797 2.82-1.383 7.398-7.598 13.289zm0 0" class="C"/><path d="M31.633 29.574c-.074 0-.121-.023-.172-.074l-2.844-2.844c-.051-.051-.051-.102-.051-.176s.023-.121.074-.172l10.441-10.441c.102-.102.25-.102.348 0a3.01 3.01 0 0 1 .965 2.301c-.051 2.746-3.168 6.234-8.562 11.332-.074.051-.148.074-.199.074zm-2.496-3.094l2.496 2.5c4.16-3.957 8.191-8.016 8.219-10.812.023-.645-.223-1.285-.645-1.781zm0 0" class="B"/><path d="M25.746 23.465l2.102 2.102a.09.09 0 0 1 0 .148c-.023.023-.023.023-.047.023l-4.355.941c-.223.023-.422-.125-.473-.348a.37.37 0 0 1 .102-.32l2.523-2.523c.047-.051.121-.074.148-.023zm0 0" class="C"/><path d="M23.371 26.926c-.371 0-.645-.297-.645-.668 0-.172.074-.344.199-.469l2.523-2.523a.37.37 0 0 1 .492 0l2.105 2.102c.148.125.148.348 0 .496-.051.051-.098.074-.172.098l-4.355.941c-.051 0-.102.023-.148.023zm2.301-3.191l-2.426 2.426c-.051.051-.074.125-.023.199.023.074.098.098.172.074l4.082-.891zm0 0" class="B"/><path d="M44.602 10.102c-1.582-1.535-4.133-1.484-5.668.121a4 4 0 0 0 .125 5.668 4 4 0 0 0 4.852.543l-2.824-2.82zm0 0" class="C"/><path d="M41.828 17.254a4.26 4.26 0 0 1-4.254-4.258 4.26 4.26 0 0 1 4.254-4.258 4.24 4.24 0 0 1 2.945 1.188c.051.051.074.102.074.176s-.023.121-.074.172l-3.34 3.34 2.625 2.625c.098.098.098.246 0 .348l-.051.047a4.18 4.18 0 0 1-2.18.621zm0-7.996c-2.078 0-3.758 1.684-3.734 3.762 0 2.078 1.684 3.762 3.762 3.738.566 0 1.137-.125 1.656-.398l-2.598-2.57c-.051-.051-.074-.102-.074-.176s.023-.121.074-.172l3.316-3.316c-.668-.57-1.512-.867-2.402-.867zm0 0" class="B"/><path d="M44.676 10.176l-.051-.051-3.539 3.488 2.797 2.797c.273-.172.547-.371.77-.594 1.582-1.559 1.582-4.082.023-5.641zm0 0" class="C"/><path d="M43.91 16.684c-.074 0-.125-.023-.176-.074l-2.82-2.82c-.051-.051-.074-.102-.074-.176s.023-.121.074-.172l3.516-3.516c.098-.098.246-.098.344 0l.074.051c1.66 1.66 1.66 4.332.027 6.012-.25.25-.52.473-.816.645-.074.027-.125.051-.148.051zm-2.477-3.07l2.5 2.5c.199-.125.395-.297.543-.445a3.77 3.77 0 0 0 .125-5.195zm0 0" class="B"/><path d="M39.504 16.336c-.594-.594-1.559-.594-2.152 0l-9.328 9.328 1.559 1.559 9.871-8.66c.645-.543.695-1.508.148-2.152-.047-.023-.074-.051-.098-.074zm0 0" class="C"/><path d="M29.555 27.473c-.074 0-.121-.023-.172-.074l-1.559-1.559c-.098-.102-.098-.25 0-.348l9.328-9.328a1.76 1.76 0 0 1 2.5 0c.691.691.691 1.805 0 2.5l-.074.074-9.875 8.66c-.023.051-.074.074-.148.074zm-1.187-1.809l1.215 1.215 9.699-8.512c.543-.445.594-1.262.148-1.809s-1.262-.594-1.805-.148c-.027.023-.051.051-.102.074zm0 0" class="B"/><path d="M20.871 36.281c-.102.051-.148.148-.125.246l.422 1.785c.098.246-.051.543-.324.617-.195.074-.418 0-.543-.148l-2.723-2.699 8.883-8.883 3.07.051 2.078 2.078c-.496.422-3.488 3.316-10.738 6.953zm0 0" class="C"/><path d="M20.672 39.176c-.199 0-.395-.074-.52-.223l-2.695-2.695c-.051-.051-.074-.102-.074-.176s.023-.121.074-.172l8.883-8.883a.25.25 0 0 1 .172-.074l3.07.047c.074 0 .121.027.172.074l2.078 2.082c.051.047.074.121.074.195a.19.19 0 0 1-.098.176l-.176.148c-2.621 2.301-6.184 4.602-10.613 6.805l.422 1.758c.074.32-.074.668-.375.84-.148.074-.27.098-.395.098zm-2.723-3.094l2.551 2.527c.074.121.223.172.344.098s.176-.223.102-.348l-.422-1.781a.45.45 0 0 1 .246-.52c4.383-2.203 7.922-4.48 10.52-6.73l-1.832-1.832-2.844-.047zm0 0" class="B"/><path d="M15.477 38.211l2.129-2.129 3.164 3.168-5.047-.344c-.223-.027-.371-.223-.348-.445 0-.102.027-.199.102-.25zm0 0" class="C"/><path d="M20.77 39.473l-5.07-.344c-.371-.027-.621-.348-.594-.719.023-.148.074-.297.195-.398l2.129-2.125c.102-.102.25-.102.348 0l3.168 3.168a.22.22 0 0 1 .047.27c-.051.098-.121.148-.223.148zm-3.164-3.043l-1.957 1.957a.14.14 0 0 0 0 .223c.023.023.051.047.102.047l4.379.297zm7.992-8.09c-.148 0-.25-.125-.25-.25 0-.074.027-.121.074-.172l2.402-2.402c.098-.098.246-.098.348 0l1.559 1.559c.074.074.098.148.074.25a.29.29 0 0 1-.199.172l-3.961.844h-.047zm2.398-2.305l-1.633 1.637 2.672-.57zm0 0" class="B"/><path d="M29.531 27.25l-2.723.594a.37.37 0 0 1-.445-.273.38.38 0 0 1 .098-.348l1.512-1.508zm0 0" class="C"/><path d="M26.762 28.09a.61.61 0 0 1-.621-.617c0-.176.074-.324.172-.445l1.512-1.512c.098-.098.246-.098.348 0l1.559 1.559a.24.24 0 0 1 .074.25.29.29 0 0 1-.199.172l-2.723.594h-.121zm1.234-2.055l-1.336 1.336c-.047.051-.047.102-.023.152s.074.074.148.074l2.277-.496zm16.703-13.484c-.047-.148-.223-.223-.371-.172s-.223.223-.172.371c0 .023.023.047.023.074.148.297.102.668-.098.938-.098.125-.074.297.023.398.125.098.297.074.398-.051.371-.469.445-1.062.195-1.559zm0 0" class="B"/><path d="M18.257 57.445v-3.848h-4.008v5.336h1.336v-1.488zm-1.336-1.215h-1.336v-1.41h1.336zm5.736 2.703v-5.336h-4.008v5.336zm-1.336-1.215h-1.336V54.82h1.336zm5.76 1.215V55.66h-2.672v-.84h2.672v-1.223h-4.008v3.238h2.672v.883h-2.672v1.215zm4.33-4.113v-1.223h-4.008v1.223h1.344v4.113h1.336V54.82zm5.576 4.113v-5.336h-5.336v1.223h.262v4.113h1.074V54.82h.664v4.113h1.336V54.82h.664v4.113zm4.422 0v-5.336h-4.008v5.336h1.336v-1.488h1.336v1.488zm-1.336-2.703h-1.336v-1.41h1.336zm5.674 2.703v-5.336h-4.008v1.223h.262v4.113h1.074V54.82h1.336v4.113zm0 0"/></svg>