<svg xmlns="http://www.w3.org/2000/svg" xmlns:xlink="http://www.w3.org/1999/xlink" width="80" zoomAndPan="magnify" viewBox="0 0 60 60" height="80" preserveAspectRatio="xMidYMid meet" version="1.0"><defs><g/><clipPath id="5d7f358cf6"><path d="M 1.84375 0 L 58.09375 0 L 58.09375 48 L 1.84375 48 Z M 1.84375 0 " clip-rule="nonzero"/></clipPath><clipPath id="7804e12034"><path d="M 1.84375 0 L 58.09375 0 L 58.09375 48.75 L 1.84375 48.75 Z M 1.84375 0 " clip-rule="nonzero"/></clipPath></defs><path fill="#61dafb" d="M 34.867188 24.375 C 34.867188 24.695312 34.835938 25.015625 34.773438 25.328125 C 34.710938 25.644531 34.617188 25.949219 34.492188 26.246094 C 34.371094 26.542969 34.21875 26.824219 34.042969 27.089844 C 33.863281 27.355469 33.660156 27.601562 33.433594 27.828125 C 33.207031 28.054688 32.957031 28.257812 32.691406 28.4375 C 32.421875 28.613281 32.140625 28.765625 31.84375 28.886719 C 31.546875 29.011719 31.242188 29.105469 30.925781 29.167969 C 30.609375 29.230469 30.289062 29.261719 29.96875 29.261719 C 29.648438 29.261719 29.328125 29.230469 29.015625 29.167969 C 28.699219 29.105469 28.390625 29.011719 28.09375 28.886719 C 27.796875 28.765625 27.515625 28.613281 27.25 28.4375 C 26.980469 28.257812 26.734375 28.054688 26.507812 27.828125 C 26.277344 27.601562 26.074219 27.355469 25.898438 27.089844 C 25.71875 26.824219 25.566406 26.542969 25.445312 26.246094 C 25.320312 25.949219 25.230469 25.644531 25.167969 25.328125 C 25.101562 25.015625 25.070312 24.695312 25.070312 24.375 C 25.070312 24.054688 25.101562 23.738281 25.167969 23.421875 C 25.230469 23.109375 25.320312 22.804688 25.445312 22.507812 C 25.566406 22.210938 25.71875 21.929688 25.898438 21.664062 C 26.074219 21.394531 26.277344 21.148438 26.507812 20.921875 C 26.734375 20.695312 26.980469 20.492188 27.25 20.316406 C 27.515625 20.136719 27.796875 19.988281 28.09375 19.863281 C 28.390625 19.742188 28.699219 19.648438 29.015625 19.585938 C 29.328125 19.523438 29.648438 19.492188 29.96875 19.492188 C 30.289062 19.492188 30.609375 19.523438 30.925781 19.585938 C 31.242188 19.648438 31.546875 19.742188 31.84375 19.863281 C 32.140625 19.988281 32.421875 20.136719 32.691406 20.316406 C 32.957031 20.492188 33.207031 20.695312 33.433594 20.921875 C 33.660156 21.148438 33.863281 21.394531 34.042969 21.664062 C 34.21875 21.929688 34.371094 22.210938 34.492188 22.507812 C 34.617188 22.804688 34.710938 23.109375 34.773438 23.421875 C 34.835938 23.738281 34.867188 24.054688 34.867188 24.375 Z M 34.867188 24.375 " fill-opacity="1" fill-rule="nonzero"/><g clip-path="url(#5d7f358cf6)"><path stroke-linecap="butt" transform="matrix(2.389023, 0, 0, 2.382349, 29.969418, 24.376195)" fill="none" stroke-linejoin="miter" d="M 11.000556 -0.000501499 C 11.000556 0.13723 10.982571 0.274962 10.946599 0.411054 C 10.912262 0.548786 10.858304 0.684878 10.787996 0.81933 C 10.717687 0.953783 10.631028 1.088235 10.526382 1.219408 C 10.421737 1.350581 10.300741 1.480115 10.163394 1.608008 C 10.024412 1.734263 9.870714 1.858877 9.700666 1.980212 C 9.530617 2.101547 9.345853 2.219603 9.146373 2.33274 C 8.945258 2.447516 8.731062 2.557374 8.503785 2.663952 C 8.274874 2.77053 8.032881 2.872189 7.777809 2.970569 C 7.522736 3.067309 7.256217 3.15913 6.978253 3.246032 C 6.700289 3.334574 6.410879 3.416557 6.111659 3.491982 C 5.812439 3.569046 5.503409 3.639552 5.184567 3.703498 C 4.867361 3.769085 4.54198 3.828113 4.210058 3.880582 C 3.876501 3.933051 3.538039 3.978962 3.193037 4.019953 C 2.848034 4.059305 2.499762 4.092099 2.146584 4.119973 C 1.793406 4.146208 1.436958 4.165884 1.078875 4.179001 C 0.719157 4.193758 0.361074 4.200316 -0.000279692 4.200316 C -0.359998 4.200316 -0.719716 4.193758 -1.077799 4.179001 C -1.437517 4.165884 -1.79233 4.146208 -2.145508 4.119973 C -2.498686 4.092099 -2.848594 4.059305 -3.193596 4.019953 C -3.538599 3.978962 -3.877061 3.933051 -4.208982 3.880582 C -4.542539 3.828113 -4.867921 3.769085 -5.185127 3.703498 C -5.502333 3.639552 -5.811363 3.569046 -6.110584 3.491982 C -6.411439 3.416557 -6.699213 3.334574 -6.978812 3.246032 C -7.256777 3.15913 -7.523295 3.067309 -7.778368 2.970569 C -8.033441 2.872189 -8.273798 2.77053 -8.50271 2.663952 C -8.731621 2.557374 -8.945817 2.447516 -9.146932 2.33274 C -9.346412 2.219603 -9.531177 2.101547 -9.701225 1.980212 C -9.871274 1.858877 -10.024971 1.734263 -10.162318 1.608008 C -10.3013 1.480115 -10.422297 1.350581 -10.526942 1.219408 C -10.631587 1.088235 -10.718247 0.953783 -10.788555 0.81933 C -10.858864 0.684878 -10.911186 0.548786 -10.947158 0.411054 C -10.98313 0.274962 -10.999481 0.13723 -10.999481 -0.000501499 C -10.999481 -0.138233 -10.98313 -0.274325 -10.947158 -0.412057 C -10.911186 -0.548149 -10.858864 -0.684241 -10.788555 -0.818694 C -10.718247 -0.954786 -10.631587 -1.087598 -10.526942 -1.218772 C -10.422297 -1.351584 -10.3013 -1.479478 -10.162318 -1.607372 C -10.024971 -1.733626 -9.871274 -1.85824 -9.701225 -1.979575 C -9.531177 -2.10091 -9.346412 -2.218966 -9.146932 -2.333743 C -8.945817 -2.448519 -8.731621 -2.558377 -8.50271 -2.664955 C -8.273798 -2.771533 -8.033441 -2.873192 -7.778368 -2.969932 C -7.523295 -3.066672 -7.256777 -3.160133 -6.978812 -3.247035 C -6.699213 -3.333937 -6.411439 -3.415921 -6.110584 -3.492985 C -5.811363 -3.568409 -5.502333 -3.638915 -5.185127 -3.704501 C -4.867921 -3.768448 -4.542539 -3.827476 -4.208982 -3.879945 C -3.877061 -3.932415 -3.538599 -3.979965 -3.193596 -4.019317 C -2.848594 -4.058669 -2.498686 -4.093102 -2.145508 -4.119336 C -1.79233 -4.145571 -1.437517 -4.166887 -1.077799 -4.180004 C -0.719716 -4.193121 -0.359998 -4.19968 -0.000279692 -4.19968 C 0.361074 -4.19968 0.719157 -4.193121 1.078875 -4.180004 C 1.436958 -4.166887 1.793406 -4.145571 2.146584 -4.119336 C 2.499762 -4.093102 2.848034 -4.058669 3.193037 -4.019317 C 3.538039 -3.979965 3.876501 -3.932415 4.210058 -3.879945 C 4.54198 -3.827476 4.867361 -3.768448 5.184567 -3.704501 C 5.503409 -3.638915 5.812439 -3.568409 6.111659 -3.492985 C 6.410879 -3.415921 6.700289 -3.333937 6.978253 -3.247035 C 7.256217 -3.160133 7.522736 -3.066672 7.777809 -2.969932 C 8.032881 -2.873192 8.274874 -2.771533 8.503785 -2.664955 C 8.731062 -2.558377 8.945258 -2.448519 9.146373 -2.333743 C 9.345853 -2.218966 9.530617 -2.10091 9.700666 -1.979575 C 9.870714 -1.85824 10.024412 -1.733626 10.163394 -1.607372 C 10.300741 -1.479478 10.421737 -1.351584 10.526382 -1.218772 C 10.631028 -1.087598 10.717687 -0.954786 10.787996 -0.818694 C 10.858304 -0.684241 10.912262 -0.548149 10.946599 -0.412057 C 10.982571 -0.274325 11.000556 -0.138233 11.000556 -0.000501499 Z M 11.000556 -0.000501499 " stroke="#61dafb" stroke-width="1" stroke-opacity="1" stroke-miterlimit="4"/></g><g clip-path="url(#7804e12034)"><path stroke-linecap="butt" transform="matrix(1.194511, 2.063174, -2.068955, 1.191174, 29.969418, 24.376195)" fill="none" stroke-linejoin="miter" d="M 10.999778 -0.000287908 C 10.999737 0.137515 10.982829 0.275019 10.947632 0.411405 C 10.911619 0.549207 10.858135 0.684475 10.787784 0.819444 C 10.717432 0.954414 10.631031 1.087669 10.526342 1.219806 C 10.42247 1.350527 10.300311 1.480129 10.162919 1.606602 C 10.02471 1.73449 9.871268 1.859248 9.701174 1.980055 C 9.53108 2.100863 9.345753 2.21854 9.146614 2.333907 C 8.946054 2.448453 8.73108 2.558454 8.503111 2.664727 C 8.275141 2.771001 8.032757 2.872728 7.778195 2.969313 C 7.522816 3.067314 7.257497 3.159576 6.97858 3.245875 C 6.700266 3.33441 6.410591 3.416387 6.110977 3.492625 C 5.811363 3.568862 5.503229 3.640181 5.185973 3.704345 C 4.867899 3.769925 4.54294 3.827754 4.209461 3.880664 C 3.8768 3.932158 3.537038 3.979553 3.19263 4.0186 C 2.848824 4.059883 2.49895 4.092 2.146452 4.118825 C 1.791716 4.146246 1.437411 4.166363 1.07764 4.179549 C 0.71929 4.193555 0.359949 4.199437 0.000221512 4.199431 C -0.360324 4.200842 -0.719621 4.193533 -1.078489 4.17892 C -1.436753 4.166542 -1.792351 4.146265 -2.146098 4.119504 C -2.499845 4.092743 -2.848084 4.059722 -3.193655 4.018801 C -3.537807 3.978699 -3.876451 3.932338 -4.209587 3.879716 C -4.542723 3.827094 -4.867512 3.769851 -5.185157 3.703516 C -5.503621 3.638597 -5.811499 3.568462 -6.111632 3.491469 C -6.410344 3.415297 -6.699892 3.333088 -6.977434 3.246482 C -7.256397 3.159056 -7.523354 3.067233 -7.777488 2.969598 C -8.032441 2.873378 -8.27457 2.771345 -8.502456 2.664319 C -8.73116 2.558709 -8.945622 2.448106 -9.146658 2.333926 C -9.345457 2.219149 -9.53083 2.100796 -9.701358 1.979685 C -9.871887 1.858574 -10.025332 1.73411 -10.162512 1.607708 C -10.301113 1.480486 -10.421211 1.35073 -10.526463 1.218218 C -10.631113 1.087941 -10.71868 0.95431 -10.788563 0.819562 C -10.858445 0.684814 -10.912062 0.548129 -10.946574 0.411146 C -10.981903 0.275578 -11.00015 0.136657 -11.000926 0.000270851 C -11.000885 -0.137532 -10.982557 -0.274216 -10.946543 -0.412018 C -10.911347 -0.548404 -10.859283 -0.684492 -10.788932 -0.819461 C -10.71858 -0.954431 -10.630759 -1.086866 -10.52607 -1.219003 C -10.421381 -1.35114 -10.301459 -1.480146 -10.16183 -1.607215 C -10.024438 -1.733687 -9.870997 -1.858445 -9.700902 -1.979253 C -9.532228 -2.10088 -9.346901 -2.218557 -9.146342 -2.333104 C -8.945783 -2.447651 -8.732228 -2.558471 -8.502839 -2.663925 C -8.27487 -2.770198 -8.032485 -2.871926 -7.778526 -2.970746 C -7.523964 -3.067331 -7.257225 -3.158773 -6.977491 -3.246488 C -6.699994 -3.333608 -6.41032 -3.415584 -6.110706 -3.491822 C -5.811091 -3.56806 -5.502957 -3.639378 -5.185701 -3.703542 C -4.867627 -3.769122 -4.542668 -3.826951 -4.209189 -3.879861 C -3.87713 -3.933591 -3.538187 -3.97957 -3.193778 -4.018617 C -2.848552 -4.059081 -2.500099 -4.092017 -2.145363 -4.119438 C -1.792865 -4.146263 -1.436321 -4.166976 -1.078788 -4.179566 C -0.719018 -4.192752 -0.36028 -4.20087 0.000867706 -4.200045 C 0.360595 -4.200039 0.719893 -4.19273 1.078158 -4.180353 C 1.437025 -4.16574 1.792622 -4.145463 2.146369 -4.118702 C 2.498696 -4.09276 2.848355 -4.058919 3.192507 -4.018818 C 3.537476 -3.980132 3.87754 -3.932951 4.209256 -3.881149 C 4.542392 -3.828527 4.867783 -3.769048 5.186247 -3.704129 C 5.50329 -3.64003 5.81177 -3.567659 6.111301 -3.492902 C 6.411434 -3.41591 6.699561 -3.334521 6.978524 -3.247095 C 7.257486 -3.159669 7.523626 -3.066431 7.778578 -2.970211 C 8.032712 -2.872575 8.274841 -2.770542 8.503546 -2.664932 C 8.731432 -2.557906 8.945893 -2.447303 9.14693 -2.333123 C 9.346546 -2.219763 9.531919 -2.101409 9.70021 -1.979702 C 9.870738 -1.858591 10.024184 -1.734127 10.162784 -1.606905 C 10.299965 -1.480503 10.4223 -1.351344 10.526132 -1.219651 C 10.631385 -1.087138 10.717532 -0.954328 10.788834 -0.81876 C 10.858716 -0.684012 10.910913 -0.548146 10.947663 -0.411759 C 10.982175 -0.274775 10.999819 -0.138091 10.999778 -0.000287908 Z M 10.999778 -0.000287908 " stroke="#61dafb" stroke-width="1" stroke-opacity="1" stroke-miterlimit="4"/><path stroke-linecap="butt" transform="matrix(-1.194511, 2.063174, -2.068955, -1.191174, 29.969418, 24.376195)" fill="none" stroke-linejoin="miter" d="M 11.000058 0.000772349 C 10.999281 0.137159 10.982454 0.27526 10.947125 0.410827 C 10.911193 0.54863 10.858996 0.684496 10.789114 0.819244 C 10.717812 0.954812 10.631664 1.087623 10.525594 1.218719 C 10.421762 1.350412 10.300244 1.480987 10.163064 1.607389 C 10.024463 1.734611 9.871018 1.859075 9.70049 1.980186 C 9.531381 2.100477 9.346008 2.218831 9.147209 2.333607 C 8.946173 2.447788 8.731712 2.558391 8.503008 2.664001 C 8.275121 2.771027 8.032992 2.873059 7.77804 2.969279 C 7.523905 3.066915 7.256948 3.158738 6.977986 3.246164 C 6.699023 3.333589 6.410896 3.414979 6.110763 3.491971 C 5.81205 3.568143 5.502752 3.639099 5.185709 3.703198 C 4.868063 3.769533 4.541855 3.827595 4.208718 3.880217 C 3.877002 3.932019 3.536938 3.979201 3.192787 4.019302 C 2.848635 4.059404 2.498976 4.093245 2.146649 4.119186 C 1.792902 4.145947 1.437305 4.166224 1.07762 4.179421 C 0.720173 4.193214 0.360875 4.200524 0.000329857 4.199113 C -0.360818 4.199938 -0.718738 4.193236 -1.078509 4.18005 C -1.436859 4.166044 -1.792585 4.146747 -2.145901 4.118506 C -2.499819 4.092501 -2.848272 4.059565 -3.193498 4.019102 C -3.537907 3.980054 -3.877668 3.932659 -4.208909 3.880346 C -4.542388 3.827436 -4.867347 3.769607 -5.185421 3.704027 C -5.502678 3.639863 -5.810812 3.568544 -6.110426 3.492306 C -6.41004 3.416069 -6.699714 3.334092 -6.978028 3.245557 C -7.256945 3.159257 -7.523684 3.067815 -7.779064 2.969815 C -8.032206 2.87241 -8.27459 2.770683 -8.502559 2.664409 C -8.731949 2.558955 -8.945503 2.448135 -9.146062 2.333588 C -9.346622 2.219042 -9.531948 2.101364 -9.700623 1.979737 C -9.870717 1.858929 -10.024159 1.734172 -10.162368 1.606283 C -10.30118 1.480631 -10.421919 1.350208 -10.52579 1.219488 C -10.630479 1.087351 -10.718301 0.954915 -10.788652 0.819946 C -10.859004 0.684976 -10.911067 0.548889 -10.947081 0.411087 C -10.982277 0.274701 -11.000606 0.138016 -11.000647 0.000213591 C -11.000688 -0.137589 -10.981623 -0.275094 -10.947111 -0.412077 C -10.911782 -0.547644 -10.858165 -0.68433 -10.788283 -0.819078 C -10.718401 -0.953826 -10.630833 -1.087456 -10.527001 -1.219149 C -10.421748 -1.351662 -10.300833 -1.480001 -10.162233 -1.607223 C -10.025052 -1.733625 -9.871607 -1.858089 -9.701079 -1.9792 C -9.531368 -2.101727 -9.345994 -2.220081 -9.146378 -2.333441 C -8.945342 -2.447622 -8.730881 -2.558225 -8.502994 -2.665251 C -8.27429 -2.770861 -8.032161 -2.872893 -7.778026 -2.970529 C -7.523074 -3.066749 -7.256935 -3.159988 -6.977972 -3.247414 C -6.70043 -3.33402 -6.410882 -3.416229 -6.112169 -3.492401 C -5.811219 -3.567977 -5.504158 -3.639529 -5.185695 -3.704448 C -4.867232 -3.769367 -4.543261 -3.828025 -4.210125 -3.880647 C -3.876989 -3.933269 -3.538345 -3.979631 -3.193376 -4.018316 C -2.847804 -4.059238 -2.499565 -4.092259 -2.145818 -4.11902 C -1.792071 -4.145781 -1.436474 -4.166058 -1.079026 -4.179851 C -0.719342 -4.193048 -0.360044 -4.200357 -0.000316337 -4.200363 C 0.359411 -4.200368 0.719569 -4.19307 1.07792 -4.179064 C 1.436873 -4.167294 1.791996 -4.145761 2.145914 -4.119756 C 2.49923 -4.091515 2.849103 -4.059399 3.19291 -4.018116 C 3.537318 -3.979068 3.876262 -3.933089 4.209741 -3.880179 C 4.543219 -3.82727 4.868178 -3.769441 5.186252 -3.703861 C 5.503509 -3.639697 5.811643 -3.568378 6.111257 -3.49214 C 6.410871 -3.415902 6.700545 -3.333926 6.978042 -3.246807 C 7.257776 -3.159091 7.523095 -3.066829 7.777657 -2.970245 C 8.033037 -2.872244 8.275421 -2.770517 8.50339 -2.664243 C 8.73136 -2.557969 8.946334 -2.447969 9.146893 -2.333422 C 9.346033 -2.218056 9.53136 -2.100378 9.701454 -1.979571 C 9.871548 -1.858763 10.02499 -1.734005 10.162381 -1.607533 C 10.300591 -1.479645 10.421932 -1.351458 10.526621 -1.219321 C 10.63131 -1.087185 10.717712 -0.953929 10.788063 -0.81896 C 10.858415 -0.68399 10.911898 -0.548723 10.947095 -0.412337 C 10.983108 -0.274535 11.000017 -0.13703 11.000058 0.000772349 Z M 11.000058 0.000772349 " stroke="#61dafb" stroke-width="1" stroke-opacity="1" stroke-miterlimit="4"/></g><g fill="#61dafb" fill-opacity="1"><g transform="translate(12.003447, 57.086397)"><g><path d="M 7.1875 0 L 5.265625 0 C 5.171875 -0.125 5.109375 -0.28125 5.078125 -0.46875 C 5.046875 -0.613281 5 -0.753906 4.9375 -0.890625 C 4.875 -1.035156 4.765625 -1.15625 4.609375 -1.25 C 4.453125 -1.34375 4.222656 -1.394531 3.921875 -1.40625 L 2.59375 -1.40625 L 2.59375 0 L 0.546875 0 L 0.546875 -4.875 L 3.859375 -4.875 C 4.660156 -4.875 5.300781 -4.8125 5.78125 -4.6875 C 6.269531 -4.570312 6.625 -4.382812 6.84375 -4.125 C 7.070312 -3.875 7.1875 -3.546875 7.1875 -3.140625 C 7.1875 -2.796875 7.109375 -2.503906 6.953125 -2.265625 C 6.804688 -2.035156 6.566406 -1.851562 6.234375 -1.71875 C 6.554688 -1.582031 6.765625 -1.421875 6.859375 -1.234375 C 6.953125 -1.046875 7.007812 -0.84375 7.03125 -0.625 C 7.050781 -0.425781 7.101562 -0.21875 7.1875 0 Z M 2.59375 -2.609375 L 3.75 -2.609375 C 4.082031 -2.609375 4.34375 -2.625 4.53125 -2.65625 C 4.71875 -2.6875 4.851562 -2.726562 4.9375 -2.78125 C 5.03125 -2.832031 5.085938 -2.882812 5.109375 -2.9375 C 5.140625 -3 5.15625 -3.066406 5.15625 -3.140625 C 5.15625 -3.203125 5.140625 -3.265625 5.109375 -3.328125 C 5.085938 -3.390625 5.03125 -3.445312 4.9375 -3.5 C 4.851562 -3.550781 4.71875 -3.59375 4.53125 -3.625 C 4.34375 -3.65625 4.082031 -3.671875 3.75 -3.671875 L 2.59375 -3.671875 Z M 2.59375 -2.609375 "/></g></g></g><g fill="#61dafb" fill-opacity="1"><g transform="translate(19.476235, 57.086397)"><g><path d="M 6.40625 0 L 0.546875 0 L 0.546875 -4.875 L 6.140625 -4.875 L 6.140625 -3.671875 L 2.59375 -3.671875 L 2.59375 -2.90625 L 5.59375 -2.90625 L 5.59375 -1.96875 L 2.59375 -1.96875 L 2.59375 -1.203125 L 6.40625 -1.203125 Z M 6.40625 0 "/></g></g></g><g fill="#61dafb" fill-opacity="1"><g transform="translate(26.164019, 57.086397)"><g><path d="M 8.1875 0 L 6.109375 0 L 5.65625 -0.796875 L 2.578125 -0.796875 L 2.125 0 L 0.046875 0 L 3.171875 -4.875 L 5.0625 -4.875 Z M 4.96875 -2 L 4.125 -3.484375 L 3.265625 -2 Z M 4.96875 -2 "/></g></g></g><g fill="#61dafb" fill-opacity="1"><g transform="translate(34.404815, 57.086397)"><g><path d="M 3.6875 0.109375 C 2.476562 0.109375 1.59375 -0.140625 1.03125 -0.640625 C 0.519531 -1.078125 0.265625 -1.675781 0.265625 -2.4375 C 0.265625 -3.1875 0.519531 -3.785156 1.03125 -4.234375 C 1.59375 -4.722656 2.476562 -4.96875 3.6875 -4.96875 C 4.394531 -4.96875 4.976562 -4.882812 5.4375 -4.71875 C 5.894531 -4.5625 6.25 -4.34375 6.5 -4.0625 C 6.757812 -3.78125 6.929688 -3.457031 7.015625 -3.09375 L 4.875 -3.09375 C 4.65625 -3.46875 4.257812 -3.65625 3.6875 -3.65625 C 3.1875 -3.65625 2.820312 -3.515625 2.59375 -3.234375 C 2.40625 -3.003906 2.3125 -2.738281 2.3125 -2.4375 C 2.3125 -2.125 2.40625 -1.851562 2.59375 -1.625 C 2.820312 -1.34375 3.1875 -1.203125 3.6875 -1.203125 C 4.257812 -1.203125 4.65625 -1.390625 4.875 -1.765625 L 7.015625 -1.765625 C 6.929688 -1.398438 6.757812 -1.078125 6.5 -0.796875 C 6.25 -0.515625 5.894531 -0.289062 5.4375 -0.125 C 4.976562 0.03125 4.394531 0.109375 3.6875 0.109375 Z M 3.6875 0.109375 "/></g></g></g><g fill="#61dafb" fill-opacity="1"><g transform="translate(41.704287, 57.086397)"><g><path d="M 4.15625 0 L 2.109375 0 L 2.109375 -3.671875 L 0.203125 -3.671875 L 0.203125 -4.875 L 6.0625 -4.875 L 6.0625 -3.671875 L 4.15625 -3.671875 Z M 4.15625 0 "/></g></g></g></svg>