<svg xmlns="http://www.w3.org/2000/svg" width="80" zoomAndPan="magnify" viewBox="0 0 60 60" height="80" preserveAspectRatio="xMidYMid meet" xmlns:v="https://vecta.io/nano"><defs><clipPath id="A"><path d="M0 22.66h14v15H0zm0 0" clip-rule="nonzero"/></clipPath></defs><path d="M19.887 34.285c-.371-.004-.738-.031-1.105-.086a11.05 11.05 0 0 1-1.18-.234v-.613a9.97 9.97 0 0 0 1.168.234 7.58 7.58 0 0 0 1.074.09 2.31 2.31 0 0 0 1.418-.371c.348-.262.512-.613.492-1.051.02-.469-.156-.832-.535-1.098a2.59 2.59 0 0 0-.555-.312l-.719-.242a6.64 6.64 0 0 1-1.004-.383 2.58 2.58 0 0 1-.68-.461 1.52 1.52 0 0 1-.387-.59 2.14 2.14 0 0 1-.125-.766c-.004-.297.055-.582.176-.852a1.85 1.85 0 0 1 .504-.66c.23-.199.492-.348.781-.437.336-.098.676-.141 1.023-.129.641.012 1.273.098 1.898.25v.625a8.04 8.04 0 0 0-.961-.191 5.8 5.8 0 0 0-.863-.066 1.99 1.99 0 0 0-1.324.395 1.22 1.22 0 0 0-.527 1.066 1.45 1.45 0 0 0 .094.531c.063.172.164.32.301.441a2.06 2.06 0 0 0 .547.348 6.01 6.01 0 0 0 .859.297l.887.313c.258.102.496.238.711.414a1.76 1.76 0 0 1 .473.609 1.94 1.94 0 0 1 .172.879c.035.629-.187 1.141-.672 1.531a2.94 2.94 0 0 1-1.941.52zm6.207-.023a2.21 2.21 0 0 1-1.84-.711c-.469-.609-.676-1.297-.629-2.07a3.39 3.39 0 0 1 .613-2.199 2.02 2.02 0 0 1 1.785-.77 1.71 1.71 0 0 1 1.492.629c.379.543.547 1.148.508 1.813v.406a1.42 1.42 0 0 1-.039.281h-3.687a2.32 2.32 0 0 0 .504 1.539c.383.375.844.543 1.371.504.266-.004.527-.027.785-.074.281-.055.559-.129.832-.23l.051.559a4.43 4.43 0 0 1-.863.242 4.76 4.76 0 0 1-.883.082zM26 29.031c-1.055 0-1.621.695-1.695 2.086h3.078a2.87 2.87 0 0 0-.336-1.598A1.11 1.11 0 0 0 26 29.031zm3.547-3.269h.68v8.41h-.68zm4.703 8.5c-.723.055-1.336-.184-1.844-.711a3 3 0 0 1-.625-2.07 3.39 3.39 0 0 1 .617-2.199 2.02 2.02 0 0 1 1.781-.77 1.71 1.71 0 0 1 1.492.629c.371.547.531 1.152.488 1.813v.406a1.42 1.42 0 0 1-.039.281h-3.672a2.32 2.32 0 0 0 .504 1.539 1.7 1.7 0 0 0 1.379.504 4.76 4.76 0 0 0 .781-.074 5.12 5.12 0 0 0 .832-.23l.051.559c-.277.109-.566.191-.859.242a5.18 5.18 0 0 1-.887.082zm-.09-5.23c-1.059 0-1.625.695-1.699 2.086h3.078a2.84 2.84 0 0 0-.336-1.598c-.258-.359-.609-.523-1.043-.488zm3.512-.469h.566l.051.656h.055l.738-.344.617-.234a3.34 3.34 0 0 1 .516-.137 2.43 2.43 0 0 1 .473-.039c.41-.035.766.094 1.07.375a1.57 1.57 0 0 1 .355 1.16v4.184h-.684v-3.961c.027-.324-.051-.617-.238-.879a.89.89 0 0 0-.727-.266c-.332.008-.652.07-.965.18a8.28 8.28 0 0 0-1.148.496v4.398h-.68zm6.558-1.254c-.125.02-.238-.016-.332-.105s-.133-.203-.125-.332c0-.129.047-.238.137-.332a.43.43 0 0 1 .32-.137.44.44 0 0 1 .324.137.46.46 0 0 1 .133.332c.012.129-.031.242-.125.332a.37.37 0 0 1-.332.105zm-.344 1.254h.68v5.609h-.68zm3.817 5.71c-.902 0-1.355-.512-1.355-1.527v-4.184h.684v3.961a1.37 1.37 0 0 0 .207.883.77.77 0 0 0 .684.262 2.79 2.79 0 0 0 1.066-.211l1.113-.5v-4.395h.695v5.609h-.57l-.051-.695h-.039l-.742.355-.594.25c-.176.063-.352.113-.531.145a3.08 3.08 0 0 1-.566.047zm4.895-5.71h.559l.059.656h.039a8.52 8.52 0 0 1 1.109-.574 2.28 2.28 0 0 1 .863-.18 1.16 1.16 0 0 1 .777.16c.238.145.41.352.512.617h.055l.621-.367.52-.234c.137-.059.281-.105.43-.137.141-.027.285-.043.43-.039a1.34 1.34 0 0 1 1.055.367 1.57 1.57 0 0 1 .359 1.156v4.188h-.672v-3.961a1.26 1.26 0 0 0-.238-.879.89.89 0 0 0-.727-.262 2.15 2.15 0 0 0-.766.168 6.06 6.06 0 0 0-.93.48v4.445h-.691v-3.961a1.27 1.27 0 0 0-.234-.883.91.91 0 0 0-.73-.258 2.18 2.18 0 0 0-.801.176c-.32.133-.625.293-.918.48v4.449h-.68zM9.234 32.148a1 1 0 0 0-.734.266 1.07 1.07 0 0 0-.363.707c-.008.027.004.043.035.043h2.129c.027 0 .039-.012.035-.039a1.08 1.08 0 0 0-.109-.398c-.059-.125-.141-.23-.246-.324a1.07 1.07 0 0 0-.348-.203c-.129-.043-.262-.062-.398-.051zm0 0" fill="#737373"/><g clip-path="url(#A)"><path fill="#737373" d="M13.801 24.84l-4.52 5.191c-.066.074-.137.074-.203 0L6.77 27.598c-.043-.059-.043-.117 0-.176l.766-1c.027-.039.063-.059.109-.059s.086.02.113.059l1.289 1.461c.07.086.141.086.211 0l3.602-5.043c.02-.035.023-.066.008-.105s-.047-.051-.086-.055H.109c-.074 0-.109.035-.109.109v14.746c0 .07.035.109.109.109h13.773c.07 0 .109-.039.109-.109V24.906c.02-.062 0-.105-.062-.129s-.105 0-.129.063zM3.898 36.004a3.31 3.31 0 0 1-2.469-.883c-.051-.059-.051-.121 0-.18l.539-.77c.043-.082.105-.098.184-.051a2.52 2.52 0 0 0 1.809.723c.707 0 1.051-.332 1.051-.687 0-1.09-3.48-.34-3.48-2.664 0-1.027.863-1.879 2.293-1.879a3.23 3.23 0 0 1 2.258.773.12.12 0 0 1 0 .188l-.527.754c-.059.078-.121.086-.195.023-.484-.395-1.035-.59-1.652-.582-.551 0-.863.25-.863.621 0 .98 3.473.324 3.473 2.641 0 1.117-.789 1.973-2.422 1.973zm7.586-2.145c.004.086-.035.125-.121.121H8.18c-.027.004-.039.02-.035.047a1.2 1.2 0 0 0 .453.766c.246.195.527.281.84.254.402-.008.77-.133 1.102-.371a.1.1 0 0 1 .172.027l.387.578c.039.063.031.117-.027.16a2.74 2.74 0 0 1-1.762.566c-.32.016-.633-.031-.93-.148a2.21 2.21 0 0 1-.793-.516c-.227-.23-.402-.496-.52-.801a2.38 2.38 0 0 1-.156-.949c-.012-.316.043-.625.156-.922s.281-.559.504-.785.473-.402.762-.523.59-.176.902-.172c1.34 0 2.246 1.027 2.246 2.527zm0 0"/></g></svg>