<svg xmlns="http://www.w3.org/2000/svg" width="80" zoomAndPan="magnify" viewBox="0 0 60 60" height="80" preserveAspectRatio="xMidYMid meet" xmlns:v="https://vecta.io/nano"><path fill="#737373" d="M26.438 59.961c-5.617-.402-11.168-1.816-14.57-3.711-1.941-1.078-3.418-2.402-3.996-3.582l-.344-.703V7.895l.27-.555C9.02 4.863 12.91 2.629 18.344 1.293c1.844-.457 4.508-.91 6.68-1.137 2.219-.234 8.098-.199 10.313.063 5.879.691 10.883 2.238 13.969 4.316 1.188.805 2.41 2.086 2.824 2.969l.352.758-.027 21.969-.031 21.969-.285.578c-.156.32-.629.945-1.051 1.391-2.562 2.719-8.066 4.73-15.281 5.586-1.469.176-7.859.316-9.367.207zm10.352-18.879c-.023-.059-.863-.805-1.867-1.664L33 37.77c-.055-.051.133-.227.414-.391s.813-.617 1.188-1.012c1.098-1.152 1.617-2.574 1.617-4.434 0-1.836-.559-3.312-1.676-4.441-1.129-1.141-2.422-1.629-4.309-1.629-2.906 0-5.137 1.695-5.848 4.445-.246.945-.246 2.855 0 3.695.645 2.184 2.395 3.773 4.57 4.148.738.125.836.18 1.34.727.297.328.91.98 1.359 1.449l.82.855h2.176c1.195 0 2.156-.047 2.137-.102zm-7.465-6.094c-.523-.273-.719-.484-1.02-1.094-.23-.469-.27-.734-.273-1.844 0-1.129.035-1.371.273-1.859.395-.801.938-1.18 1.781-1.242 1.168-.082 1.844.492 2.195 1.871.434 1.691-.043 3.488-1.082 4.086-.547.313-1.359.348-1.875.082zm-9.645 3.137c2.281-.43 3.578-1.758 3.578-3.664 0-1.687-.836-2.672-3.148-3.703-1.324-.594-1.801-.961-1.801-1.395 0-.359.453-.754.984-.852.516-.098 1.887.141 2.695.469l.68.273V26.25l-.738-.164c-.453-.102-1.41-.16-2.504-.16-1.547 0-1.848.039-2.43.27-1.703.676-2.512 1.828-2.496 3.559.012 1.617.867 2.629 2.992 3.539 1.254.535 1.758.945 1.758 1.426 0 1.027-1.707 1.152-3.52.262l-.988-.488c-.047-.027-.086.676-.086 1.559 0 1.594 0 1.602.289 1.715 1.09.41 3.492.598 4.734.359zm26.082-1.48v-1.355h-4.121V25.98h-3.652V38h7.777v-1.355zM33.039 12.898c3.629-.25 6.348-.727 8.742-1.527 2.387-.797 3.793-1.762 4.109-2.812.121-.406.113-.562-.059-1.004-.758-1.992-5.012-3.523-11.504-4.145-2.781-.266-7.832-.18-10.48.18-4.043.543-7.324 1.559-8.781 2.715-2.953 2.336.168 4.906 7.426 6.113 3.145.527 7.223.711 10.547.48zm0 0"/></svg>